<svg version="1.1" preserveAspectRatio="none" xmlns="http://www.w3.org/2000/svg" width="500" height="500" viewBox="0 0 500 500"><rect width="100%" height="100%" fill="#FFFFFF" fill-opacity="1"/><svg viewBox="25.955 280.2421 651.7756 149.8" width="333" height="76.53462326604433" x="83.5px" y="211.7327px" xmlns="http://www.w3.org/2000/svg" xmlns:xlink="http://www.w3.org/1999/xlink" preserveAspectRatio="none"><defs></defs><style>.companyName {fill:#4D4D4D;fill-opacity:1;}.icon1 {fill:#FF834F;fill-opacity:1;}.icon2 {fill:#FF4949;fill-opacity:1;}.icon3 {fill:#FFAE78;fill-opacity:1;}.icon3-str {stroke:#FFAE78;stroke-opacity:1;}.shapeStroke-str {stroke:#313131;stroke-opacity:1;}.text {fill:#4D4D4D;fill-opacity:1;}</style><g opacity="1" transform="rotate(0 111.5497 300.2421)">
<svg width="60.6894" height="70" x="111.5497" y="300.2421" version="1.1" preserveAspectRatio="none" viewBox="9.49724292755127 3.282512664794922 81.0055160522461 93.43284606933594">
  <g transform="matrix(1 0 0 1 0 0)" class="icon1"><title>21</title><g data-name="Group"><path data-name="Compound Path" d="M90.5,55.3a26.3,26.3,0,0,0-2.9-12.2c0-.4,0-.7,0-1.1A21.8,21.8,0,0,0,84,29.8c0-.3,0-.7,0-1.1a16.3,16.3,0,0,0-3.5-10.3A11.5,11.5,0,0,0,72.7,14a15.6,15.6,0,0,0-3-6.2A11,11,0,0,0,52,7.7,15,15,0,0,0,50,11a15,15,0,0,0-2-3.3,11,11,0,0,0-17.6,0,15.6,15.6,0,0,0-3,6.2,11.5,11.5,0,0,0-7.8,4.4A16.3,16.3,0,0,0,16,28.7c0,.4,0,.7,0,1.1A21.8,21.8,0,0,0,12.4,42c0,.4,0,.7,0,1.1A26.3,26.3,0,0,0,9.5,55.3a25.3,25.3,0,0,0,5.4,16L16,72.5q0,.2,0,.5a16.3,16.3,0,0,0,3.5,10.3,11.4,11.4,0,0,0,8.3,4.4,15.2,15.2,0,0,0,2.5,4.4A11.3,11.3,0,0,0,40,96.7c4.3-.4,8-3.5,10-7.9,2,4.4,5.7,7.6,10,7.9h.8a11.4,11.4,0,0,0,8.8-4.5,15.2,15.2,0,0,0,2.5-4.4,11.4,11.4,0,0,0,8.3-4.4A16.3,16.3,0,0,0,84,73q0-.3,0-.5l1.1-1.2A25.3,25.3,0,0,0,90.5,55.3ZM39,15.3a3,3,0,1,1-3,3A3,3,0,0,1,39,15.3Zm6.3,75.4V61.9a1.5,1.5,0,0,0-1.5-1.5h-15a6,6,0,1,0,0,3H42.3V84.3H34.4V77.8a6,6,0,1,0-3-.1v8a1.5,1.5,0,0,0,1.5,1.5h9.4V93a7.4,7.4,0,0,1-2.5.7,8.3,8.3,0,0,1-7.1-3.3,12.5,12.5,0,0,1-2.3-4.5,1.5,1.5,0,0,0-1.4-1.1h-.6a8.4,8.4,0,0,1-6.5-3.3A13.3,13.3,0,0,1,19,73q0-.5,0-.9h0a1.6,1.6,0,0,0-.3-1v-.2l-1.3-1.4a22.3,22.3,0,0,1-4.7-14.1,23.2,23.2,0,0,1,2.7-11.1h0a1.6,1.6,0,0,0,.2-.8h0c0-.4,0-.9,0-1.3a18.6,18.6,0,0,1,3.4-10.9h0a1.6,1.6,0,0,0,.3-.9V30a12.6,12.6,0,0,1-.1-1.3,13.3,13.3,0,0,1,2.8-8.5,8.4,8.4,0,0,1,6.5-3.3h.2A1.5,1.5,0,0,0,30,15.7a12.9,12.9,0,0,1,2.6-6A8.7,8.7,0,0,1,38,6.4v6a6,6,0,1,0,3,.3V6.5a8.9,8.9,0,0,1,4.7,3.1,12.9,12.9,0,0,1,2.6,6,14.6,14.6,0,0,1,.2,2.4V42.6H46V29.2a1.5,1.5,0,0,0-1.5-1.5h-9a6,6,0,1,0,.1,3H43V42.6H40.5a6,6,0,1,0-.1,3h8v6.7H23.4V46.8a6,6,0,1,0-3-.1v7a1.5,1.5,0,0,0,1.5,1.5H48.5V81.5A14,14,0,0,1,45.3,90.7ZM26,62a3,3,0,1,1-3-3A3,3,0,0,1,26,62Zm7,13a3,3,0,1,1,3-3A3,3,0,0,1,33,75Zm-.3-45.7a3,3,0,1,1-3-3A3,3,0,0,1,32.7,29.3Zm5,14.7a3,3,0,1,1-3-3A3,3,0,0,1,37.7,44ZM22,44a3,3,0,1,1,3-3A3,3,0,0,1,22,44ZM82.8,69.4l-1.3,1.4V71a1.6,1.6,0,0,0-.3,1h0q0,.5,0,.9a13.3,13.3,0,0,1-2.8,8.5,8.4,8.4,0,0,1-6.5,3.3h-.5a1.5,1.5,0,0,0-1.6,1.1,12.5,12.5,0,0,1-2.3,4.5,8.3,8.3,0,0,1-7.1,3.3c-4.9-.4-8.7-5.7-8.7-12.2V18.1a14.7,14.7,0,0,1,.2-2.4,12.9,12.9,0,0,1,2.6-6,8,8,0,0,1,13,0,12.9,12.9,0,0,1,2.6,6,1.5,1.5,0,0,0,1.5,1.3h.2a8.4,8.4,0,0,1,6.5,3.3A13.3,13.3,0,0,1,81,28.7a12.6,12.6,0,0,1-.1,1.3v.2a1.6,1.6,0,0,0,.3.9h0A18.6,18.6,0,0,1,84.6,42c0,.4,0,.9,0,1.3h0a1.6,1.6,0,0,0,.2.8h0a23.2,23.2,0,0,1,2.7,11.1A22.3,22.3,0,0,1,82.8,69.4Z"></path><path data-name="Path" d="M55.3,43.4h.5a8.2,8.2,0,0,0,5.5-9.7,7.8,7.8,0,0,0-4.8-14.8,1.5,1.5,0,0,0,.9,2.9,4.8,4.8,0,0,1,2.9,9.1l-1.1.2A1.5,1.5,0,0,0,58,33.1l.3.8a5.2,5.2,0,0,1-3.4,6.5,1.5,1.5,0,0,0,.5,2.9Z"></path><path data-name="Path" d="M71.3,64.7a1.5,1.5,0,0,0-1.1,1.8A7.5,7.5,0,0,1,65,75.8a7.4,7.4,0,0,1-3.1.2,1.5,1.5,0,0,0-1.3.4,7.8,7.8,0,0,1-3.6,2.2,1.5,1.5,0,0,0,.4,2.9h.4A10.9,10.9,0,0,0,62.2,79,10.5,10.5,0,0,0,73.1,65.7,1.5,1.5,0,0,0,71.3,64.7Z"></path><path data-name="Path" d="M75.7,53.1a10.5,10.5,0,0,0-16.4-5.2,1.5,1.5,0,1,0,1.8,2.4A7.5,7.5,0,0,1,73,54.5a1.5,1.5,0,0,0,.9,1,7.8,7.8,0,0,1,3.4,2.5,1.5,1.5,0,0,0,2.4-1.8A10.9,10.9,0,0,0,75.7,53.1Z"></path><path data-name="Path" d="M77.7,38a7.9,7.9,0,0,0-6.4-7.9,1.5,1.5,0,0,0-.6,2.9,4.9,4.9,0,0,1,3.9,5.6,1.5,1.5,0,0,0,.9,1.6,3.4,3.4,0,0,1,2.1,3.8,1.5,1.5,0,0,0,1.2,1.8h.3a1.5,1.5,0,0,0,1.5-1.2A6.4,6.4,0,0,0,77.7,38Z"></path><path data-name="Path" d="M64.8,59.7a20.7,20.7,0,0,0,4.5-3.3,1.5,1.5,0,0,0-2.1-2.2,17.3,17.3,0,0,1-4.4,3.1,1.5,1.5,0,0,0-.8,1.1c-.4,2.5-4,4.3-8,4a1.5,1.5,0,0,0-.2,3H55C59.8,65.4,63.7,63.1,64.8,59.7Z"></path></g></g>
</svg>
</g><g opacity="1" transform="rotate(0 25.955 406.2421)">
<svg width="651.7756" height="23.8" x="25.955" y="406.2421" version="1.1" preserveAspectRatio="none" viewBox="-0.2 -30.88 1065.8400000000001 38.92">
  <g transform="matrix(1 0 0 1 0 0)" class="text"><path id="id-6izo4zJp44" d="M24.72 0L21.92-6.48L7.92-6.48L5.16 0L-0.20 0L12.40-28L17.52-28L30.16 0L24.72 0ZM9.68-10.56L20.20-10.56L14.92-22.80L9.68-10.56Z M63.72-4.72L65.12-1.16Q64.24-0.44 62.98-0.08Q61.72 0.28 60.32 0.28L60.32 0.28Q56.80 0.28 54.88-1.56Q52.96-3.40 52.96-6.92L52.96-6.92L52.96-17.20L49.44-17.20L49.44-21.20L52.96-21.20L52.96-26.08L57.96-26.08L57.96-21.20L63.68-21.20L63.68-17.20L57.96-17.20L57.96-7.04Q57.96-5.48 58.72-4.66Q59.48-3.84 60.92-3.84L60.92-3.84Q62.60-3.84 63.72-4.72L63.72-4.72Z M92.60-10.56Q92.60-10.04 92.52-9.08L92.52-9.08L75.76-9.08Q76.20-6.72 78.06-5.34Q79.92-3.96 82.68-3.96L82.68-3.96Q86.20-3.96 88.48-6.28L88.48-6.28L91.16-3.20Q89.72-1.48 87.52-0.60Q85.32 0.28 82.56 0.28L82.56 0.28Q79.04 0.28 76.36-1.12Q73.68-2.52 72.22-5.02Q70.76-7.52 70.76-10.68L70.76-10.68Q70.76-13.80 72.18-16.30Q73.60-18.80 76.12-20.20Q78.64-21.60 81.80-21.60L81.80-21.60Q84.92-21.60 87.38-20.22Q89.84-18.84 91.22-16.34Q92.60-13.84 92.60-10.56L92.60-10.56ZM81.80-17.60Q79.40-17.60 77.74-16.18Q76.08-14.76 75.72-12.40L75.72-12.40L87.84-12.40Q87.52-14.72 85.88-16.16Q84.24-17.60 81.80-17.60L81.80-17.60Z M111.20 0.28Q107.88 0.28 105.24-1.12Q102.60-2.52 101.12-5.02Q99.64-7.52 99.64-10.68L99.64-10.68Q99.64-13.84 101.12-16.32Q102.60-18.80 105.22-20.20Q107.84-21.60 111.20-21.60L111.20-21.60Q114.36-21.60 116.74-20.32Q119.12-19.04 120.32-16.64L120.32-16.64L116.48-14.40Q115.56-15.88 114.18-16.62Q112.80-17.36 111.16-17.36L111.16-17.36Q108.36-17.36 106.52-15.54Q104.68-13.72 104.68-10.68L104.68-10.68Q104.68-7.64 106.50-5.82Q108.32-4 111.16-4L111.16-4Q112.80-4 114.18-4.74Q115.56-5.48 116.48-6.96L116.48-6.96L120.32-4.72Q119.08-2.32 116.70-1.02Q114.32 0.28 111.20 0.28L111.20 0.28Z M140.56-21.60Q144.60-21.60 147.04-19.24Q149.48-16.88 149.48-12.24L149.48-12.24L149.48 0L144.48 0L144.48-11.60Q144.48-14.40 143.16-15.82Q141.84-17.24 139.40-17.24L139.40-17.24Q136.64-17.24 135.04-15.58Q133.44-13.92 133.44-10.80L133.44-10.80L133.44 0L128.44 0L128.44-29.68L133.44-29.68L133.44-18.88Q134.68-20.20 136.50-20.90Q138.32-21.60 140.56-21.60L140.56-21.60Z M171.96-21.60Q176-21.60 178.44-19.24Q180.88-16.88 180.88-12.24L180.88-12.24L180.88 0L175.88 0L175.88-11.60Q175.88-14.40 174.56-15.82Q173.24-17.24 170.80-17.24L170.80-17.24Q168.04-17.24 166.44-15.58Q164.84-13.92 164.84-10.80L164.84-10.80L164.84 0L159.84 0L159.84-21.36L164.60-21.36L164.60-18.60Q165.84-20.08 167.72-20.84Q169.60-21.60 171.96-21.60L171.96-21.60Z M191.24 0L191.24-21.36L196.24-21.36L196.24 0L191.24 0ZM193.76-24.88Q192.40-24.88 191.48-25.74Q190.56-26.60 190.56-27.88L190.56-27.88Q190.56-29.16 191.48-30.02Q192.40-30.88 193.76-30.88L193.76-30.88Q195.12-30.88 196.04-30.06Q196.96-29.24 196.96-28L196.96-28Q196.96-26.68 196.06-25.78Q195.16-24.88 193.76-24.88L193.76-24.88Z M216.60 0.28Q213.28 0.28 210.64-1.12Q208-2.52 206.52-5.02Q205.04-7.52 205.04-10.68L205.04-10.68Q205.04-13.84 206.52-16.32Q208-18.80 210.62-20.20Q213.24-21.60 216.60-21.60L216.60-21.60Q219.76-21.60 222.14-20.32Q224.52-19.04 225.72-16.64L225.72-16.64L221.88-14.40Q220.96-15.88 219.58-16.62Q218.20-17.36 216.56-17.36L216.56-17.36Q213.76-17.36 211.92-15.54Q210.08-13.72 210.08-10.68L210.08-10.68Q210.08-7.64 211.90-5.82Q213.72-4 216.56-4L216.56-4Q218.20-4 219.58-4.74Q220.96-5.48 221.88-6.96L221.88-6.96L225.72-4.72Q224.48-2.32 222.10-1.02Q219.72 0.28 216.60 0.28L216.60 0.28Z M242.20-21.60Q246.92-21.60 249.42-19.34Q251.92-17.08 251.92-12.52L251.92-12.52L251.92 0L247.20 0L247.20-2.60Q246.28-1.20 244.58-0.46Q242.88 0.28 240.48 0.28L240.48 0.28Q238.08 0.28 236.28-0.54Q234.48-1.36 233.50-2.82Q232.52-4.28 232.52-6.12L232.52-6.12Q232.52-9 234.66-10.74Q236.80-12.48 241.40-12.48L241.40-12.48L246.92-12.48L246.92-12.80Q246.92-15.04 245.58-16.24Q244.24-17.44 241.60-17.44L241.60-17.44Q239.80-17.44 238.06-16.88Q236.32-16.32 235.12-15.32L235.12-15.32L233.16-18.96Q234.84-20.24 237.20-20.92Q239.56-21.60 242.20-21.60L242.20-21.60ZM241.52-3.36Q243.40-3.36 244.86-4.22Q246.32-5.08 246.92-6.68L246.92-6.68L246.92-9.16L241.76-9.16Q237.44-9.16 237.44-6.32L237.44-6.32Q237.44-4.96 238.52-4.16Q239.60-3.36 241.52-3.36L241.52-3.36Z M262.32 0L262.32-29.68L267.32-29.68L267.32 0L262.32 0Z M304.76-21.60Q307.88-21.60 310.34-20.24Q312.80-18.88 314.20-16.40Q315.60-13.92 315.60-10.68L315.60-10.68Q315.60-7.44 314.20-4.94Q312.80-2.44 310.34-1.08Q307.88 0.28 304.76 0.28L304.76 0.28Q302.56 0.28 300.74-0.48Q298.92-1.24 297.68-2.76L297.68-2.76L297.68 0L292.92 0L292.92-29.68L297.92-29.68L297.92-18.76Q299.20-20.16 300.94-20.88Q302.68-21.60 304.76-21.60L304.76-21.60ZM304.20-4Q306.96-4 308.74-5.84Q310.52-7.68 310.52-10.68L310.52-10.68Q310.52-13.68 308.74-15.52Q306.96-17.36 304.20-17.36L304.20-17.36Q302.40-17.36 300.96-16.54Q299.52-15.72 298.68-14.20Q297.84-12.68 297.84-10.68L297.84-10.68Q297.84-8.68 298.68-7.16Q299.52-5.64 300.96-4.82Q302.40-4 304.20-4L304.20-4Z M324.36 0L324.36-29.68L329.36-29.68L329.36 0L324.36 0Z M349.52 0.28Q346.28 0.28 343.68-1.12Q341.08-2.52 339.62-5.02Q338.16-7.52 338.16-10.68L338.16-10.68Q338.16-13.84 339.62-16.32Q341.08-18.80 343.68-20.20Q346.28-21.60 349.52-21.60L349.52-21.60Q352.80-21.60 355.40-20.20Q358.00-18.80 359.46-16.32Q360.92-13.84 360.92-10.68L360.92-10.68Q360.92-7.52 359.46-5.02Q358.00-2.52 355.40-1.12Q352.80 0.28 349.52 0.28L349.52 0.28ZM349.52-4Q352.28-4 354.08-5.84Q355.88-7.68 355.88-10.68L355.88-10.68Q355.88-13.68 354.08-15.52Q352.28-17.36 349.52-17.36L349.52-17.36Q346.76-17.36 344.98-15.52Q343.20-13.68 343.20-10.68L343.20-10.68Q343.20-7.68 344.98-5.84Q346.76-4 349.52-4L349.52-4Z M386.16-21.36L390.92-21.36L390.92-3.24Q390.92 8.04 379.40 8.04L379.40 8.04Q376.32 8.04 373.56 7.26Q370.80 6.48 369.00 5L369.00 5L371.24 1.24Q372.64 2.40 374.78 3.10Q376.92 3.80 379.12 3.80L379.12 3.80Q382.64 3.80 384.28 2.20Q385.92 0.60 385.92-2.68L385.92-2.68L385.92-3.80Q384.64-2.40 382.80-1.68Q380.96-0.96 378.76-0.96L378.76-0.96Q375.72-0.96 373.26-2.26Q370.80-3.56 369.38-5.92Q367.96-8.28 367.96-11.32L367.96-11.32Q367.96-14.36 369.38-16.70Q370.80-19.04 373.26-20.32Q375.72-21.60 378.76-21.60L378.76-21.60Q381.08-21.60 382.98-20.84Q384.88-20.08 386.16-18.52L386.16-18.52L386.16-21.36ZM379.52-5.20Q382.36-5.20 384.18-6.90Q386.00-8.60 386.00-11.32L386.00-11.32Q386.00-14 384.18-15.68Q382.36-17.36 379.52-17.36L379.52-17.36Q376.64-17.36 374.82-15.68Q373.00-14 373.00-11.32L373.00-11.32Q373.00-8.60 374.82-6.90Q376.64-5.20 379.52-5.20L379.52-5.20Z M400.40-9.04L400.40-13.20L411.40-13.20L411.40-9.04L400.40-9.04Z M427.48 0.28Q424.88 0.28 422.40-0.40Q419.92-1.08 418.44-2.12L418.44-2.12L420.36-5.92Q421.80-4.96 423.82-4.38Q425.84-3.80 427.80-3.80L427.80-3.80Q432.28-3.80 432.28-6.16L432.28-6.16Q432.28-7.28 431.14-7.72Q430-8.16 427.48-8.56L427.48-8.56Q424.84-8.96 423.18-9.48Q421.52-10 420.30-11.30Q419.08-12.60 419.08-14.92L419.08-14.92Q419.08-17.96 421.62-19.78Q424.16-21.60 428.48-21.60L428.48-21.60Q430.68-21.60 432.88-21.10Q435.08-20.60 436.48-19.76L436.48-19.76L434.56-15.96Q431.84-17.56 428.44-17.56L428.44-17.56Q426.24-17.56 425.10-16.90Q423.96-16.24 423.96-15.16L423.96-15.16Q423.96-13.96 425.18-13.46Q426.40-12.96 428.96-12.52L428.96-12.52Q431.52-12.12 433.16-11.60Q434.80-11.08 435.98-9.84Q437.16-8.60 437.16-6.32L437.16-6.32Q437.16-3.32 434.56-1.52Q431.96 0.28 427.48 0.28L427.48 0.28Z M445.48 0L445.48-21.36L450.48-21.36L450.48 0L445.48 0ZM448.00-24.88Q446.64-24.88 445.72-25.74Q444.80-26.60 444.80-27.88L444.80-27.88Q444.80-29.16 445.72-30.02Q446.64-30.88 448.00-30.88L448.00-30.88Q449.36-30.88 450.28-30.06Q451.20-29.24 451.20-28L451.20-28Q451.20-26.68 450.30-25.78Q449.40-24.88 448.00-24.88L448.00-24.88Z M472.48-4.72L473.88-1.16Q473.00-0.44 471.74-0.08Q470.48 0.28 469.08 0.28L469.08 0.28Q465.56 0.28 463.64-1.56Q461.72-3.40 461.72-6.92L461.72-6.92L461.72-17.20L458.20-17.20L458.20-21.20L461.72-21.20L461.72-26.08L466.72-26.08L466.72-21.20L472.44-21.20L472.44-17.20L466.72-17.20L466.72-7.04Q466.72-5.48 467.48-4.66Q468.24-3.84 469.68-3.84L469.68-3.84Q471.36-3.84 472.48-4.72L472.48-4.72Z M501.36-10.56Q501.36-10.04 501.28-9.08L501.28-9.08L484.52-9.08Q484.96-6.72 486.82-5.34Q488.68-3.96 491.44-3.96L491.44-3.96Q494.96-3.96 497.24-6.28L497.24-6.28L499.92-3.20Q498.48-1.48 496.28-0.60Q494.08 0.28 491.32 0.28L491.32 0.28Q487.80 0.28 485.12-1.12Q482.44-2.52 480.98-5.02Q479.52-7.52 479.52-10.68L479.52-10.68Q479.52-13.80 480.94-16.30Q482.36-18.80 484.88-20.20Q487.40-21.60 490.56-21.60L490.56-21.60Q493.68-21.60 496.14-20.22Q498.60-18.84 499.98-16.34Q501.36-13.84 501.36-10.56L501.36-10.56ZM490.56-17.60Q488.16-17.60 486.50-16.18Q484.84-14.76 484.48-12.40L484.48-12.40L496.60-12.40Q496.28-14.72 494.64-16.16Q493-17.60 490.56-17.60L490.56-17.60Z M533.88-25.92Q530.72-25.92 530.72-22.48L530.72-22.48L530.72-21.20L536.60-21.20L536.60-17.20L530.88-17.20L530.88 0L525.88 0L525.88-17.20L522.36-17.20L522.36-21.20L525.88-21.20L525.88-22.56Q525.88-26 527.88-27.98Q529.88-29.96 533.52-29.96L533.52-29.96Q536.40-29.96 538.04-28.80L538.04-28.80L536.64-25.04Q535.36-25.92 533.88-25.92L533.88-25.92Z M553.24 0.28Q550.00 0.28 547.40-1.12Q544.80-2.52 543.34-5.02Q541.88-7.52 541.88-10.68L541.88-10.68Q541.88-13.84 543.34-16.32Q544.80-18.80 547.40-20.20Q550.00-21.60 553.24-21.60L553.24-21.60Q556.52-21.60 559.12-20.20Q561.72-18.80 563.18-16.32Q564.64-13.84 564.64-10.68L564.64-10.68Q564.64-7.52 563.18-5.02Q561.72-2.52 559.12-1.12Q556.52 0.28 553.24 0.28L553.24 0.28ZM553.24-4Q556.00-4 557.80-5.84Q559.60-7.68 559.60-10.68L559.60-10.68Q559.60-13.68 557.80-15.52Q556.00-17.36 553.24-17.36L553.24-17.36Q550.48-17.36 548.70-15.52Q546.92-13.68 546.92-10.68L546.92-10.68Q546.92-7.68 548.70-5.84Q550.48-4 553.24-4L553.24-4Z M578.20-18.24Q580.36-21.60 585.80-21.60L585.80-21.60L585.80-16.84Q585.16-16.96 584.64-16.96L584.64-16.96Q581.72-16.96 580.08-15.26Q578.44-13.56 578.44-10.36L578.44-10.36L578.44 0L573.44 0L573.44-21.36L578.20-21.36L578.20-18.24Z M636.24-21.60Q640.28-21.60 642.64-19.26Q645.00-16.92 645.00-12.24L645.00-12.24L645.00 0L640.00 0L640.00-11.60Q640.00-14.40 638.76-15.82Q637.52-17.24 635.20-17.24L635.20-17.24Q632.68-17.24 631.16-15.58Q629.64-13.92 629.64-10.84L629.64-10.84L629.64 0L624.64 0L624.64-11.60Q624.64-14.40 623.40-15.82Q622.16-17.24 619.84-17.24L619.84-17.24Q617.28-17.24 615.78-15.60Q614.28-13.96 614.28-10.84L614.28-10.84L614.28 0L609.28 0L609.28-21.36L614.04-21.36L614.04-18.64Q615.24-20.08 617.04-20.84Q618.84-21.60 621.04-21.60L621.04-21.60Q623.44-21.60 625.30-20.70Q627.16-19.80 628.24-18.04L628.24-18.04Q629.56-19.72 631.64-20.66Q633.72-21.60 636.24-21.60L636.24-21.60Z M670.20-21.36L675.00-21.36L665.00 1.72Q663.60 5.20 661.60 6.62Q659.60 8.04 656.76 8.04L656.76 8.04Q655.16 8.04 653.60 7.52Q652.04 7 651.04 6.08L651.04 6.08L653.04 2.40Q653.76 3.08 654.74 3.48Q655.72 3.88 656.72 3.88L656.72 3.88Q658.04 3.88 658.90 3.20Q659.76 2.52 660.48 0.92L660.48 0.92L660.84 0.08L651.52-21.36L656.72-21.36L663.44-5.56L670.20-21.36Z M713.60-21.36L718.36-21.36L718.36-3.24Q718.36 8.04 706.84 8.04L706.84 8.04Q703.76 8.04 701.00 7.26Q698.24 6.48 696.44 5L696.44 5L698.68 1.24Q700.08 2.40 702.22 3.10Q704.36 3.80 706.56 3.80L706.56 3.80Q710.08 3.80 711.72 2.20Q713.36 0.60 713.36-2.68L713.36-2.68L713.36-3.80Q712.08-2.40 710.24-1.68Q708.40-0.96 706.20-0.96L706.20-0.96Q703.16-0.96 700.70-2.26Q698.24-3.56 696.82-5.92Q695.40-8.28 695.40-11.32L695.40-11.32Q695.40-14.36 696.82-16.70Q698.24-19.04 700.70-20.32Q703.16-21.60 706.20-21.60L706.20-21.60Q708.52-21.60 710.42-20.84Q712.32-20.08 713.60-18.52L713.60-18.52L713.60-21.36ZM706.96-5.20Q709.80-5.20 711.62-6.90Q713.44-8.60 713.44-11.32L713.44-11.32Q713.44-14 711.62-15.68Q709.80-17.36 706.96-17.36L706.96-17.36Q704.08-17.36 702.26-15.68Q700.44-14 700.44-11.32L700.44-11.32Q700.44-8.60 702.26-6.90Q704.08-5.20 706.96-5.20L706.96-5.20Z M728.92 0L728.92-21.36L733.92-21.36L733.92 0L728.92 0ZM731.44-24.88Q730.08-24.88 729.16-25.74Q728.24-26.60 728.24-27.88L728.24-27.88Q728.24-29.16 729.16-30.02Q730.08-30.88 731.44-30.88L731.44-30.88Q732.80-30.88 733.72-30.06Q734.64-29.24 734.64-28L734.64-28Q734.64-26.68 733.74-25.78Q732.84-24.88 731.44-24.88L731.44-24.88Z M755.92-4.72L757.32-1.16Q756.44-0.44 755.18-0.08Q753.92 0.28 752.52 0.28L752.52 0.28Q749.00 0.28 747.08-1.56Q745.16-3.40 745.16-6.92L745.16-6.92L745.16-17.20L741.64-17.20L741.64-21.20L745.16-21.20L745.16-26.08L750.16-26.08L750.16-21.20L755.88-21.20L755.88-17.20L750.16-17.20L750.16-7.04Q750.16-5.48 750.92-4.66Q751.68-3.84 753.12-3.84L753.12-3.84Q754.80-3.84 755.92-4.72L755.92-4.72Z M777.56-21.60Q781.60-21.60 784.04-19.24Q786.48-16.88 786.48-12.24L786.48-12.24L786.48 0L781.48 0L781.48-11.60Q781.48-14.40 780.16-15.82Q778.84-17.24 776.40-17.24L776.40-17.24Q773.64-17.24 772.04-15.58Q770.44-13.92 770.44-10.80L770.44-10.80L770.44 0L765.44 0L765.44-29.68L770.44-29.68L770.44-18.88Q771.68-20.20 773.50-20.90Q775.32-21.60 777.56-21.60L777.56-21.60Z M812.52-21.36L817.52-21.36L817.52 0L812.76 0L812.76-2.72Q811.56-1.28 809.76-0.50Q807.96 0.28 805.88 0.28L805.88 0.28Q801.60 0.28 799.14-2.10Q796.68-4.48 796.68-9.16L796.68-9.16L796.68-21.36L801.68-21.36L801.68-9.84Q801.68-6.96 802.98-5.54Q804.28-4.12 806.68-4.12L806.68-4.12Q809.36-4.12 810.94-5.78Q812.52-7.44 812.52-10.56L812.52-10.56L812.52-21.36Z M839.92-21.60Q843.04-21.60 845.50-20.24Q847.96-18.88 849.36-16.40Q850.76-13.92 850.76-10.68L850.76-10.68Q850.76-7.44 849.36-4.94Q847.96-2.44 845.50-1.08Q843.04 0.28 839.92 0.28L839.92 0.28Q837.72 0.28 835.90-0.48Q834.08-1.24 832.84-2.76L832.84-2.76L832.84 0L828.08 0L828.08-29.68L833.08-29.68L833.08-18.76Q834.36-20.16 836.10-20.88Q837.84-21.60 839.92-21.60L839.92-21.60ZM839.36-4Q842.12-4 843.90-5.84Q845.68-7.68 845.68-10.68L845.68-10.68Q845.68-13.68 843.90-15.52Q842.12-17.36 839.36-17.36L839.36-17.36Q837.56-17.36 836.12-16.54Q834.68-15.72 833.84-14.20Q833.00-12.68 833.00-10.68L833.00-10.68Q833.00-8.68 833.84-7.16Q834.68-5.64 836.12-4.82Q837.56-4 839.36-4L839.36-4Z M886.40-21.60Q889.52-21.60 891.98-20.24Q894.44-18.88 895.84-16.40Q897.24-13.92 897.24-10.68L897.24-10.68Q897.24-7.44 895.84-4.94Q894.44-2.44 891.98-1.08Q889.52 0.28 886.40 0.28L886.40 0.28Q882.08 0.28 879.56-2.60L879.56-2.60L879.56 7.76L874.56 7.76L874.56-21.36L879.32-21.36L879.32-18.56Q880.56-20.08 882.38-20.84Q884.20-21.60 886.40-21.60L886.40-21.60ZM885.84-4Q888.60-4 890.38-5.84Q892.16-7.68 892.16-10.68L892.16-10.68Q892.16-13.68 890.38-15.52Q888.60-17.36 885.84-17.36L885.84-17.36Q884.04-17.36 882.60-16.54Q881.16-15.72 880.32-14.20Q879.48-12.68 879.48-10.68L879.48-10.68Q879.48-8.68 880.32-7.16Q881.16-5.64 882.60-4.82Q884.04-4 885.84-4L885.84-4Z M910.76-18.24Q912.92-21.60 918.36-21.60L918.36-21.60L918.36-16.84Q917.72-16.96 917.20-16.96L917.20-16.96Q914.28-16.96 912.64-15.26Q911.00-13.56 911.00-10.36L911.00-10.36L911.00 0L906.00 0L906.00-21.36L910.76-21.36L910.76-18.24Z M936.00 0.28Q932.76 0.28 930.16-1.12Q927.56-2.52 926.10-5.02Q924.64-7.52 924.64-10.68L924.64-10.68Q924.64-13.84 926.10-16.32Q927.56-18.80 930.16-20.20Q932.76-21.60 936.00-21.60L936.00-21.60Q939.28-21.60 941.88-20.20Q944.48-18.80 945.94-16.32Q947.40-13.84 947.40-10.68L947.40-10.68Q947.40-7.52 945.94-5.02Q944.48-2.52 941.88-1.12Q939.28 0.28 936.00 0.28L936.00 0.28ZM936.00-4Q938.76-4 940.56-5.84Q942.36-7.68 942.36-10.68L942.36-10.68Q942.36-13.68 940.56-15.52Q938.76-17.36 936.00-17.36L936.00-17.36Q933.24-17.36 931.46-15.52Q929.68-13.68 929.68-10.68L929.68-10.68Q929.68-7.68 931.46-5.84Q933.24-4 936.00-4L936.00-4Z M954.00 8.04Q950.84 8.04 949.20 6.80L949.20 6.80L950.64 3.08Q951.76 3.92 953.56 3.92L953.56 3.92Q954.96 3.92 955.70 3.06Q956.44 2.20 956.44 0.52L956.44 0.52L956.44-21.36L961.44-21.36L961.44 0.40Q961.44 3.96 959.48 6Q957.52 8.04 954.00 8.04L954.00 8.04ZM958.92-24.88Q957.56-24.88 956.64-25.74Q955.72-26.60 955.72-27.88L955.72-27.88Q955.72-29.16 956.64-30.02Q957.56-30.88 958.92-30.88L958.92-30.88Q960.28-30.88 961.20-30.06Q962.12-29.24 962.12-28L962.12-28Q962.12-26.68 961.22-25.78Q960.32-24.88 958.92-24.88L958.92-24.88Z M992.08-10.56Q992.08-10.04 992.00-9.08L992.00-9.08L975.24-9.08Q975.68-6.72 977.54-5.34Q979.40-3.96 982.16-3.96L982.16-3.96Q985.68-3.96 987.96-6.28L987.96-6.28L990.64-3.20Q989.20-1.48 987.00-0.60Q984.80 0.28 982.04 0.28L982.04 0.28Q978.52 0.28 975.84-1.12Q973.16-2.52 971.70-5.02Q970.24-7.52 970.24-10.68L970.24-10.68Q970.24-13.80 971.66-16.30Q973.08-18.80 975.60-20.20Q978.12-21.60 981.28-21.60L981.28-21.60Q984.40-21.60 986.86-20.22Q989.32-18.84 990.70-16.34Q992.08-13.84 992.08-10.56L992.08-10.56ZM981.28-17.60Q978.88-17.60 977.22-16.18Q975.56-14.76 975.20-12.40L975.20-12.40L987.32-12.40Q987.00-14.72 985.36-16.16Q983.72-17.60 981.28-17.60L981.28-17.60Z M1010.68 0.28Q1007.36 0.28 1004.72-1.12Q1002.08-2.52 1000.60-5.02Q999.12-7.52 999.12-10.68L999.12-10.68Q999.12-13.84 1000.60-16.32Q1002.08-18.80 1004.70-20.20Q1007.32-21.60 1010.68-21.60L1010.68-21.60Q1013.84-21.60 1016.22-20.32Q1018.60-19.04 1019.80-16.64L1019.80-16.64L1015.96-14.40Q1015.04-15.88 1013.66-16.62Q1012.28-17.36 1010.64-17.36L1010.64-17.36Q1007.84-17.36 1006.00-15.54Q1004.16-13.72 1004.16-10.68L1004.16-10.68Q1004.16-7.64 1005.98-5.82Q1007.80-4 1010.64-4L1010.64-4Q1012.28-4 1013.66-4.74Q1015.04-5.48 1015.96-6.96L1015.96-6.96L1019.80-4.72Q1018.56-2.32 1016.18-1.02Q1013.80 0.28 1010.68 0.28L1010.68 0.28Z M1039.84-4.72L1041.24-1.16Q1040.36-0.44 1039.10-0.08Q1037.84 0.28 1036.44 0.28L1036.44 0.28Q1032.92 0.28 1031.00-1.56Q1029.08-3.40 1029.08-6.92L1029.08-6.92L1029.08-17.20L1025.56-17.20L1025.56-21.20L1029.08-21.20L1029.08-26.08L1034.08-26.08L1034.08-21.20L1039.80-21.20L1039.80-17.20L1034.08-17.20L1034.08-7.04Q1034.08-5.48 1034.84-4.66Q1035.60-3.84 1037.04-3.84L1037.04-3.84Q1038.72-3.84 1039.84-4.72L1039.84-4.72Z M1055.96 0.28Q1053.36 0.28 1050.88-0.40Q1048.40-1.08 1046.92-2.12L1046.92-2.12L1048.84-5.92Q1050.28-4.96 1052.30-4.38Q1054.32-3.80 1056.28-3.80L1056.28-3.80Q1060.76-3.80 1060.76-6.16L1060.76-6.16Q1060.76-7.28 1059.62-7.72Q1058.48-8.16 1055.96-8.56L1055.96-8.56Q1053.32-8.96 1051.66-9.48Q1050.00-10 1048.78-11.30Q1047.56-12.60 1047.56-14.92L1047.56-14.92Q1047.56-17.96 1050.10-19.78Q1052.64-21.60 1056.96-21.60L1056.96-21.60Q1059.16-21.60 1061.36-21.10Q1063.56-20.60 1064.96-19.76L1064.96-19.76L1063.04-15.96Q1060.32-17.56 1056.92-17.56L1056.92-17.56Q1054.72-17.56 1053.58-16.90Q1052.44-16.24 1052.44-15.16L1052.44-15.16Q1052.44-13.96 1053.66-13.46Q1054.88-12.96 1057.44-12.52L1057.44-12.52Q1060.00-12.12 1061.64-11.60Q1063.28-11.08 1064.46-9.84Q1065.64-8.60 1065.64-6.32L1065.64-6.32Q1065.64-3.32 1063.04-1.52Q1060.44 0.28 1055.96 0.28L1055.96 0.28Z"/></g>
</svg>
</g><g opacity="1" transform="rotate(0 210.2391 300.2421)">
<svg width="381.8968" height="70" x="210.2391" y="300.2421" version="1.1" preserveAspectRatio="none" viewBox="3.32 -29.68 206 37.760000000000005">
  <g transform="matrix(1 0 0 1 0 0)" class="companyName"><path id="id-D6z1nYkh9" d="M28.12 0L21.16 0L15.76-7.80L15.44-7.80L9.80-7.80L9.80 0L3.32 0L3.32-28L15.44-28Q19.16-28 21.90-26.76Q24.64-25.52 26.12-23.24Q27.60-20.96 27.60-17.84L27.60-17.84Q27.60-14.72 26.10-12.46Q24.60-10.20 21.84-9L21.84-9L28.12 0ZM21.04-17.84Q21.04-20.20 19.52-21.46Q18-22.72 15.08-22.72L15.08-22.72L9.80-22.72L9.80-12.96L15.08-12.96Q18-12.96 19.52-14.24Q21.04-15.52 21.04-17.84L21.04-17.84Z M40.76-21.84Q45.76-21.84 48.44-19.46Q51.12-17.08 51.12-12.28L51.12-12.28L51.12 0L45.28 0L45.28-2.68Q43.52 0.32 38.72 0.32L38.72 0.32Q36.24 0.32 34.42-0.52Q32.60-1.36 31.64-2.84Q30.68-4.32 30.68-6.20L30.68-6.20Q30.68-9.20 32.94-10.92Q35.20-12.64 39.92-12.64L39.92-12.64L44.88-12.64Q44.88-14.68 43.64-15.78Q42.40-16.88 39.92-16.88L39.92-16.88Q38.20-16.88 36.54-16.34Q34.88-15.80 33.72-14.88L33.72-14.88L31.48-19.24Q33.24-20.48 35.70-21.16Q38.16-21.84 40.76-21.84L40.76-21.84ZM40.28-3.88Q41.88-3.88 43.12-4.62Q44.36-5.36 44.88-6.80L44.88-6.80L44.88-9L40.60-9Q36.76-9 36.76-6.48L36.76-6.48Q36.76-5.28 37.70-4.58Q38.64-3.88 40.28-3.88L40.28-3.88Z M71.72-21.52L77.72-21.52L68 1.32Q66.52 5.04 64.34 6.56Q62.16 8.08 59.08 8.08L59.08 8.08Q57.40 8.08 55.76 7.56Q54.12 7.04 53.08 6.12L53.08 6.12L55.36 1.68Q56.08 2.32 57.02 2.68Q57.96 3.04 58.88 3.04L58.88 3.04Q60.16 3.04 60.96 2.42Q61.76 1.80 62.40 0.36L62.40 0.36L62.48 0.16L53.16-21.52L59.60-21.52L65.64-6.92L71.72-21.52Z M78.84-8.76L78.84-13.76L90.16-13.76L90.16-8.76L78.84-8.76Z M116.08-14.56Q118.48-13.80 119.84-12.02Q121.20-10.24 121.20-7.64L121.20-7.64Q121.20-3.96 118.34-1.98Q115.48 0 110 0L110 0L95.52 0L95.52-28L109.20-28Q114.32-28 117.06-26.04Q119.80-24.08 119.80-20.72L119.80-20.72Q119.80-18.68 118.82-17.08Q117.84-15.48 116.08-14.56L116.08-14.56ZM108.40-23.12L101.96-23.12L101.96-16.52L108.40-16.52Q110.80-16.52 112.04-17.36Q113.28-18.20 113.28-19.84L113.28-19.84Q113.28-21.48 112.04-22.30Q110.80-23.12 108.40-23.12L108.40-23.12ZM109.52-4.88Q112.08-4.88 113.38-5.72Q114.68-6.56 114.68-8.32L114.68-8.32Q114.68-11.80 109.52-11.80L109.52-11.80L101.96-11.80L101.96-4.88L109.52-4.88Z M125.68 0L125.68-29.68L131.92-29.68L131.92 0L125.68 0Z M147.96 0.32Q144.56 0.32 141.86-1.10Q139.16-2.52 137.64-5.04Q136.12-7.56 136.12-10.76L136.12-10.76Q136.12-13.96 137.64-16.48Q139.16-19 141.86-20.42Q144.56-21.84 147.96-21.84L147.96-21.84Q151.36-21.84 154.04-20.42Q156.72-19 158.24-16.48Q159.76-13.96 159.76-10.76L159.76-10.76Q159.76-7.56 158.24-5.04Q156.72-2.52 154.04-1.10Q151.36 0.32 147.96 0.32L147.96 0.32ZM147.96-4.80Q150.36-4.80 151.90-6.42Q153.44-8.04 153.44-10.76L153.44-10.76Q153.44-13.48 151.90-15.10Q150.36-16.72 147.96-16.72L147.96-16.72Q145.56-16.72 144-15.10Q142.44-13.48 142.44-10.76L142.44-10.76Q142.44-8.04 144-6.42Q145.56-4.80 147.96-4.80L147.96-4.80Z M180.20-21.52L186.12-21.52L186.12-3.60Q186.12 2.32 183.04 5.20Q179.96 8.08 174.04 8.08L174.04 8.08Q170.92 8.08 168.12 7.32Q165.32 6.56 163.48 5.12L163.48 5.12L165.96 0.64Q167.32 1.76 169.40 2.42Q171.48 3.08 173.56 3.08L173.56 3.08Q176.80 3.08 178.34 1.62Q179.88 0.16 179.88-2.80L179.88-2.80L179.88-3.72Q177.44-1.04 173.08-1.04L173.08-1.04Q170.12-1.04 167.66-2.34Q165.20-3.64 163.76-6Q162.32-8.36 162.32-11.44L162.32-11.44Q162.32-14.52 163.76-16.88Q165.20-19.24 167.66-20.54Q170.12-21.84 173.08-21.84L173.08-21.84Q177.76-21.84 180.20-18.76L180.20-18.76L180.20-21.52ZM174.32-6.16Q176.80-6.16 178.38-7.62Q179.96-9.08 179.96-11.44L179.96-11.44Q179.96-13.80 178.38-15.26Q176.80-16.72 174.32-16.72L174.32-16.72Q171.84-16.72 170.24-15.26Q168.64-13.80 168.64-11.44L168.64-11.44Q168.64-9.08 170.24-7.62Q171.84-6.16 174.32-6.16L174.32-6.16Z M199.16 0.32Q196.48 0.32 193.92-0.34Q191.36-1 189.84-2L189.84-2L191.92-6.48Q193.36-5.56 195.40-4.98Q197.44-4.40 199.40-4.40L199.40-4.40Q203.36-4.40 203.36-6.36L203.36-6.36Q203.36-7.28 202.28-7.68Q201.20-8.08 198.96-8.36L198.96-8.36Q196.32-8.76 194.60-9.28Q192.88-9.80 191.62-11.12Q190.36-12.44 190.36-14.88L190.36-14.88Q190.36-16.92 191.54-18.50Q192.72-20.08 194.98-20.96Q197.24-21.84 200.32-21.84L200.32-21.84Q202.60-21.84 204.86-21.34Q207.12-20.84 208.60-19.96L208.60-19.96L206.52-15.52Q203.68-17.12 200.32-17.12L200.32-17.12Q198.32-17.12 197.32-16.56Q196.32-16 196.32-15.12L196.32-15.12Q196.32-14.12 197.40-13.72Q198.48-13.32 200.84-12.96L200.84-12.96Q203.48-12.52 205.16-12.02Q206.84-11.52 208.08-10.20Q209.32-8.88 209.32-6.52L209.32-6.52Q209.32-4.52 208.12-2.96Q206.92-1.40 204.62-0.54Q202.32 0.32 199.16 0.32L199.16 0.32Z"/></g>
</svg>
</g><g opacity="1" transform="rotate(0 190.2391 280.2421)">
<svg width="4" height="110" x="190.2391" y="280.2421" version="1.1" preserveAspectRatio="none" viewBox="0 0 4 110">
  <defs><rect x="0" y="0" width="4" height="110" rx="0px" ry="0px" id="id-tBXipXk0b1690346110718"></rect></defs><use class="companyName shapeStroke-str" style="stroke-width:0;" xlink:href="#id-tBXipXk0b1690346110718"></use>
</svg>
</g></svg></svg>