<svg version="1.1" preserveAspectRatio="none" xmlns="http://www.w3.org/2000/svg" width="500" height="500" viewBox="0 0 500 500"><rect width="100%" height="100%" fill="#F3F0ED" fill-opacity="1"/><svg viewBox="-8.4334 168.9588 461.0277 158.8" width="333" height="114.70113400995213" x="83.5px" y="192.6494px" xmlns="http://www.w3.org/2000/svg" xmlns:xlink="http://www.w3.org/1999/xlink" preserveAspectRatio="none"><defs></defs><style>.companyName {fill:#9E2D0B;fill-opacity:1;}.icon3-str {stroke:#F3977A;stroke-opacity:1;}.text {fill:#D99416;fill-opacity:1;}</style><g opacity="1" transform="rotate(0 -8.4334 310.9588)">
<svg width="461.0277" height="16.8" x="-8.4334" y="310.9588" version="1.1" preserveAspectRatio="none" viewBox="-0.04 -30.28 1050.3600000000001 38.28">
  <g transform="matrix(1 0 0 1 0 0)" class="text"><path id="id-6izo4zJp44" d="M25.12 0L22.04-7L7.16-7L4.08 0L-0.04 0L12.64-28L16.60-28L29.32 0L25.12 0ZM8.56-10.20L20.64-10.20L14.60-23.92L8.56-10.20Z M62.40-4L63.60-1.24Q62.76-0.52 61.52-0.14Q60.28 0.24 58.96 0.24L58.96 0.24Q55.76 0.24 54-1.48Q52.24-3.20 52.24-6.40L52.24-6.40L52.24-18.04L48.64-18.04L48.64-21.20L52.24-21.20L52.24-25.84L56.08-25.84L56.08-21.20L62.16-21.20L62.16-18.04L56.08-18.04L56.08-6.56Q56.08-4.84 56.94-3.92Q57.80-3 59.40-3L59.40-3Q61.16-3 62.40-4L62.40-4Z M90.68-10.48Q90.68-10.04 90.60-9.32L90.60-9.32L73.40-9.32Q73.76-6.52 75.86-4.82Q77.96-3.12 81.08-3.12L81.08-3.12Q84.88-3.12 87.20-5.68L87.20-5.68L89.32-3.20Q87.88-1.52 85.74-0.64Q83.60 0.24 80.96 0.24L80.96 0.24Q77.60 0.24 75-1.14Q72.40-2.52 70.98-5Q69.56-7.48 69.56-10.60L69.56-10.60Q69.56-13.68 70.94-16.16Q72.32-18.64 74.74-20.02Q77.16-21.40 80.20-21.40L80.20-21.40Q83.24-21.40 85.62-20.02Q88-18.64 89.34-16.16Q90.68-13.68 90.68-10.48L90.68-10.48ZM80.20-18.16Q77.44-18.16 75.58-16.48Q73.72-14.80 73.40-12.08L73.40-12.08L87-12.08Q86.68-14.76 84.82-16.46Q82.96-18.16 80.20-18.16L80.20-18.16Z M109.24 0.24Q106 0.24 103.46-1.16Q100.92-2.56 99.48-5.02Q98.04-7.48 98.04-10.60L98.04-10.60Q98.04-13.72 99.48-16.18Q100.92-18.64 103.46-20.02Q106-21.40 109.24-21.40L109.24-21.40Q112.12-21.40 114.38-20.24Q116.64-19.08 117.88-16.88L117.88-16.88L114.96-15Q113.96-16.52 112.48-17.28Q111-18.04 109.20-18.04L109.20-18.04Q107.12-18.04 105.46-17.12Q103.80-16.20 102.86-14.50Q101.92-12.80 101.92-10.60L101.92-10.60Q101.92-8.36 102.86-6.66Q103.80-4.96 105.46-4.04Q107.12-3.12 109.20-3.12L109.20-3.12Q111-3.12 112.48-3.88Q113.96-4.64 114.96-6.16L114.96-6.16L117.88-4.32Q116.64-2.12 114.38-0.94Q112.12 0.24 109.24 0.24L109.24 0.24Z M137.88-21.40Q141.92-21.40 144.30-19.06Q146.68-16.72 146.68-12.20L146.68-12.20L146.68 0L142.84 0L142.84-11.76Q142.84-14.84 141.36-16.40Q139.88-17.96 137.12-17.96L137.12-17.96Q134-17.96 132.20-16.14Q130.40-14.32 130.40-10.92L130.40-10.92L130.40 0L126.56 0L126.56-29.68L130.40-29.68L130.40-18.20Q131.60-19.72 133.54-20.56Q135.48-21.40 137.88-21.40L137.88-21.40Z M169.12-21.40Q173.16-21.40 175.54-19.06Q177.92-16.72 177.92-12.20L177.92-12.20L177.92 0L174.08 0L174.08-11.76Q174.08-14.84 172.60-16.40Q171.12-17.96 168.36-17.96L168.36-17.96Q165.24-17.96 163.44-16.14Q161.64-14.32 161.64-10.92L161.64-10.92L161.64 0L157.80 0L157.80-21.20L161.48-21.20L161.48-18Q162.64-19.64 164.62-20.52Q166.60-21.40 169.12-21.40L169.12-21.40Z M189.04 0L189.04-21.20L192.88-21.20L192.88 0L189.04 0ZM190.96-25.28Q189.84-25.28 189.10-26Q188.36-26.72 188.36-27.76L188.36-27.76Q188.36-28.80 189.10-29.54Q189.84-30.28 190.96-30.28L190.96-30.28Q192.08-30.28 192.82-29.58Q193.56-28.88 193.56-27.84L193.56-27.84Q193.56-26.76 192.82-26.02Q192.08-25.28 190.96-25.28L190.96-25.28Z M213.44 0.24Q210.20 0.24 207.66-1.16Q205.12-2.56 203.68-5.02Q202.24-7.48 202.24-10.60L202.24-10.60Q202.24-13.72 203.68-16.18Q205.12-18.64 207.66-20.02Q210.20-21.40 213.44-21.40L213.44-21.40Q216.32-21.40 218.58-20.24Q220.84-19.08 222.08-16.88L222.08-16.88L219.16-15Q218.16-16.52 216.68-17.28Q215.20-18.04 213.40-18.04L213.40-18.04Q211.32-18.04 209.66-17.12Q208-16.20 207.06-14.50Q206.12-12.80 206.12-10.60L206.12-10.60Q206.12-8.36 207.06-6.66Q208-4.96 209.66-4.04Q211.32-3.12 213.40-3.12L213.40-3.12Q215.20-3.12 216.68-3.88Q218.16-4.64 219.16-6.16L219.16-6.16L222.08-4.32Q220.84-2.12 218.58-0.94Q216.32 0.24 213.44 0.24L213.44 0.24Z M238.76-21.40Q243.16-21.40 245.50-19.24Q247.84-17.08 247.84-12.80L247.84-12.80L247.84 0L244.20 0L244.20-2.80Q243.24-1.32 241.46-0.54Q239.68 0.24 237.24 0.24L237.24 0.24Q233.68 0.24 231.54-1.48Q229.40-3.20 229.40-6L229.40-6Q229.40-8.80 231.44-10.50Q233.48-12.20 237.92-12.20L237.92-12.20L244-12.20L244-12.96Q244-15.44 242.56-16.76Q241.12-18.08 238.32-18.08L238.32-18.08Q236.44-18.08 234.64-17.46Q232.84-16.84 231.60-15.80L231.60-15.80L230-18.68Q231.64-20 233.92-20.70Q236.20-21.40 238.76-21.40L238.76-21.40ZM237.88-2.72Q240.08-2.72 241.68-3.70Q243.28-4.68 244-6.48L244-6.48L244-9.44L238.08-9.44Q233.20-9.44 233.20-6.16L233.20-6.16Q233.20-4.56 234.44-3.64Q235.68-2.72 237.88-2.72L237.88-2.72Z M258.96 0L258.96-29.68L262.80-29.68L262.80 0L258.96 0Z M300.12-21.40Q303.20-21.40 305.64-20.04Q308.08-18.68 309.46-16.24Q310.84-13.80 310.84-10.60L310.84-10.60Q310.84-7.40 309.46-4.94Q308.08-2.48 305.64-1.12Q303.20 0.24 300.12 0.24L300.12 0.24Q297.76 0.24 295.80-0.68Q293.84-1.60 292.56-3.36L292.56-3.36L292.56 0L288.88 0L288.88-29.68L292.72-29.68L292.72-18Q294-19.68 295.92-20.54Q297.84-21.40 300.12-21.40L300.12-21.40ZM299.80-3.12Q301.84-3.12 303.46-4.06Q305.08-5 306.02-6.70Q306.96-8.40 306.96-10.60L306.96-10.60Q306.96-12.80 306.02-14.50Q305.08-16.20 303.46-17.12Q301.84-18.04 299.80-18.04L299.80-18.04Q297.80-18.04 296.16-17.12Q294.52-16.20 293.60-14.50Q292.68-12.80 292.68-10.60L292.68-10.60Q292.68-8.40 293.60-6.70Q294.52-5 296.16-4.06Q297.80-3.12 299.80-3.12L299.80-3.12Z M320.16 0L320.16-29.68L324-29.68L324 0L320.16 0Z M344.40 0.24Q341.24 0.24 338.72-1.16Q336.20-2.56 334.78-5.02Q333.36-7.48 333.36-10.60L333.36-10.60Q333.36-13.72 334.78-16.18Q336.20-18.64 338.72-20.02Q341.24-21.40 344.40-21.40L344.40-21.40Q347.56-21.40 350.06-20.02Q352.56-18.64 353.98-16.18Q355.40-13.72 355.40-10.60L355.40-10.60Q355.40-7.48 353.98-5.02Q352.56-2.56 350.06-1.16Q347.56 0.24 344.40 0.24L344.40 0.24ZM344.40-3.12Q346.44-3.12 348.06-4.06Q349.68-5 350.60-6.70Q351.52-8.40 351.52-10.60L351.52-10.60Q351.52-12.80 350.60-14.50Q349.68-16.20 348.06-17.12Q346.44-18.04 344.40-18.04L344.40-18.04Q342.36-18.04 340.74-17.12Q339.12-16.20 338.18-14.50Q337.24-12.80 337.24-10.60L337.24-10.60Q337.24-8.40 338.18-6.70Q339.12-5 340.74-4.06Q342.36-3.12 344.40-3.12L344.40-3.12Z M381.36-21.20L385-21.20L385-2.88Q385 2.68 382.24 5.34Q379.48 8 374 8L374 8Q371 8 368.28 7.18Q365.56 6.36 363.88 4.84L363.88 4.84L365.72 1.88Q367.20 3.16 369.38 3.90Q371.56 4.64 373.88 4.64L373.88 4.64Q377.60 4.64 379.38 2.88Q381.16 1.12 381.16-2.48L381.16-2.48L381.16-4.16Q379.80-2.52 377.82-1.70Q375.84-0.88 373.52-0.88L373.52-0.88Q370.48-0.88 368.02-2.18Q365.56-3.48 364.16-5.82Q362.76-8.16 362.76-11.16L362.76-11.16Q362.76-14.16 364.16-16.50Q365.56-18.84 368.02-20.12Q370.48-21.40 373.52-21.40L373.52-21.40Q375.92-21.40 377.98-20.52Q380.04-19.64 381.36-17.92L381.36-17.92L381.36-21.20ZM373.96-4.24Q376.04-4.24 377.70-5.12Q379.36-6 380.30-7.58Q381.24-9.16 381.24-11.16L381.24-11.16Q381.24-14.24 379.20-16.14Q377.16-18.04 373.96-18.04L373.96-18.04Q370.72-18.04 368.68-16.14Q366.64-14.24 366.64-11.16L366.64-11.16Q366.64-9.16 367.58-7.58Q368.52-6 370.18-5.12Q371.84-4.24 373.96-4.24L373.96-4.24Z M394.96-9.32L394.96-12.64L405.72-12.64L405.72-9.32L394.96-9.32Z M421.72 0.24Q419.12 0.24 416.72-0.46Q414.32-1.16 412.96-2.24L412.96-2.24L414.56-5.28Q415.96-4.28 417.96-3.68Q419.96-3.08 422-3.08L422-3.08Q427.04-3.08 427.04-5.96L427.04-5.96Q427.04-6.92 426.36-7.48Q425.68-8.04 424.66-8.30Q423.64-8.56 421.76-8.88L421.76-8.88Q419.20-9.28 417.58-9.80Q415.96-10.32 414.80-11.56Q413.64-12.80 413.64-15.04L413.64-15.04Q413.64-17.92 416.04-19.66Q418.44-21.40 422.48-21.40L422.48-21.40Q424.60-21.40 426.72-20.88Q428.84-20.36 430.20-19.48L430.20-19.48L428.56-16.44Q425.96-18.12 422.44-18.12L422.44-18.12Q420-18.12 418.72-17.32Q417.44-16.52 417.44-15.20L417.44-15.20Q417.44-14.16 418.16-13.56Q418.88-12.96 419.94-12.68Q421-12.40 422.92-12.04L422.92-12.04Q425.48-11.60 427.06-11.10Q428.64-10.60 429.76-9.40Q430.88-8.20 430.88-6.04L430.88-6.04Q430.88-3.16 428.42-1.46Q425.96 0.24 421.72 0.24L421.72 0.24Z M439.68 0L439.68-21.20L443.52-21.20L443.52 0L439.68 0ZM441.60-25.28Q440.48-25.28 439.74-26Q439-26.72 439-27.76L439-27.76Q439-28.80 439.74-29.54Q440.48-30.28 441.60-30.28L441.60-30.28Q442.72-30.28 443.46-29.58Q444.20-28.88 444.20-27.84L444.20-27.84Q444.20-26.76 443.46-26.02Q442.72-25.28 441.60-25.28L441.60-25.28Z M465.56-4L466.76-1.24Q465.92-0.52 464.68-0.14Q463.44 0.24 462.12 0.24L462.12 0.24Q458.92 0.24 457.16-1.48Q455.40-3.20 455.40-6.40L455.40-6.40L455.40-18.04L451.80-18.04L451.80-21.20L455.40-21.20L455.40-25.84L459.24-25.84L459.24-21.20L465.32-21.20L465.32-18.04L459.24-18.04L459.24-6.56Q459.24-4.84 460.10-3.92Q460.96-3 462.56-3L462.56-3Q464.32-3 465.56-4L465.56-4Z M493.84-10.48Q493.84-10.04 493.76-9.32L493.76-9.32L476.56-9.32Q476.92-6.52 479.02-4.82Q481.12-3.12 484.24-3.12L484.24-3.12Q488.04-3.12 490.36-5.68L490.36-5.68L492.48-3.20Q491.04-1.52 488.90-0.64Q486.76 0.24 484.12 0.24L484.12 0.24Q480.76 0.24 478.16-1.14Q475.56-2.52 474.14-5Q472.72-7.48 472.72-10.60L472.72-10.60Q472.72-13.68 474.10-16.16Q475.48-18.64 477.90-20.02Q480.32-21.40 483.36-21.40L483.36-21.40Q486.40-21.40 488.78-20.02Q491.16-18.64 492.50-16.16Q493.84-13.68 493.84-10.48L493.84-10.48ZM483.36-18.16Q480.60-18.16 478.74-16.48Q476.88-14.80 476.56-12.08L476.56-12.08L490.16-12.08Q489.84-14.76 487.98-16.46Q486.12-18.16 483.36-18.16L483.36-18.16Z M525.68-26.76Q522.24-26.76 522.24-23.04L522.24-23.04L522.24-21.20L528.40-21.20L528.40-18.04L522.32-18.04L522.32 0L518.48 0L518.48-18.04L514.88-18.04L514.88-21.20L518.48-21.20L518.48-23.08Q518.48-26.24 520.32-28.08Q522.16-29.92 525.48-29.92L525.48-29.92Q526.76-29.92 527.88-29.60Q529-29.28 529.80-28.68L529.80-28.68L528.64-25.76Q527.32-26.76 525.68-26.76L525.68-26.76Z M544.80 0.24Q541.64 0.24 539.12-1.16Q536.60-2.56 535.18-5.02Q533.76-7.48 533.76-10.60L533.76-10.60Q533.76-13.72 535.18-16.18Q536.60-18.64 539.12-20.02Q541.64-21.40 544.80-21.40L544.80-21.40Q547.96-21.40 550.46-20.02Q552.96-18.64 554.38-16.18Q555.80-13.72 555.80-10.60L555.80-10.60Q555.80-7.48 554.38-5.02Q552.96-2.56 550.46-1.16Q547.96 0.24 544.80 0.24L544.80 0.24ZM544.80-3.12Q546.84-3.12 548.46-4.06Q550.08-5 551.00-6.70Q551.92-8.40 551.92-10.60L551.92-10.60Q551.92-12.80 551.00-14.50Q550.08-16.20 548.46-17.12Q546.84-18.04 544.80-18.04L544.80-18.04Q542.76-18.04 541.14-17.12Q539.52-16.20 538.58-14.50Q537.64-12.80 537.64-10.60L537.64-10.60Q537.64-8.40 538.58-6.70Q539.52-5 541.14-4.06Q542.76-3.12 544.80-3.12L544.80-3.12Z M568.80-17.64Q569.80-19.48 571.76-20.44Q573.72-21.40 576.52-21.40L576.52-21.40L576.52-17.68Q576.20-17.72 575.64-17.72L575.64-17.72Q572.52-17.72 570.74-15.86Q568.96-14 568.96-10.56L568.96-10.56L568.96 0L565.12 0L565.12-21.20L568.80-21.20L568.80-17.64Z M626.80-21.40Q630.80-21.40 633.14-19.08Q635.48-16.76 635.48-12.20L635.48-12.20L635.48 0L631.64 0L631.64-11.76Q631.64-14.84 630.22-16.40Q628.80-17.96 626.16-17.96L626.16-17.96Q623.24-17.96 621.52-16.14Q619.80-14.32 619.80-10.92L619.80-10.92L619.80 0L615.96 0L615.96-11.76Q615.96-14.84 614.54-16.40Q613.12-17.96 610.48-17.96L610.48-17.96Q607.56-17.96 605.84-16.14Q604.12-14.32 604.12-10.92L604.12-10.92L604.12 0L600.28 0L600.28-21.20L603.96-21.20L603.96-18.04Q605.12-19.68 607.00-20.54Q608.88-21.40 611.28-21.40L611.28-21.40Q613.76-21.40 615.68-20.40Q617.60-19.40 618.64-17.48L618.64-17.48Q619.84-19.32 621.98-20.36Q624.12-21.40 626.80-21.40L626.80-21.40Z M661.16-21.20L664.92-21.20L654.64 2.12Q653.28 5.36 651.46 6.68Q649.64 8 647.08 8L647.08 8Q645.52 8 644.06 7.50Q642.60 7 641.64 6.04L641.64 6.04L643.28 3.16Q644.92 4.72 647.08 4.72L647.08 4.72Q648.48 4.72 649.42 3.98Q650.36 3.24 651.12 1.44L651.12 1.44L651.80-0.04L642.44-21.20L646.44-21.20L653.84-4.24L661.16-21.20Z M703.92-21.20L707.56-21.20L707.56-2.88Q707.56 2.68 704.80 5.34Q702.04 8 696.56 8L696.56 8Q693.56 8 690.84 7.18Q688.12 6.36 686.44 4.84L686.44 4.84L688.28 1.88Q689.76 3.16 691.94 3.90Q694.12 4.64 696.44 4.64L696.44 4.64Q700.16 4.64 701.94 2.88Q703.72 1.12 703.72-2.48L703.72-2.48L703.72-4.16Q702.36-2.52 700.38-1.70Q698.40-0.88 696.08-0.88L696.08-0.88Q693.04-0.88 690.58-2.18Q688.12-3.48 686.72-5.82Q685.32-8.16 685.32-11.16L685.32-11.16Q685.32-14.16 686.72-16.50Q688.12-18.84 690.58-20.12Q693.04-21.40 696.08-21.40L696.08-21.40Q698.48-21.40 700.54-20.52Q702.60-19.64 703.92-17.92L703.92-17.92L703.92-21.20ZM696.52-4.24Q698.60-4.24 700.26-5.12Q701.92-6 702.86-7.58Q703.80-9.16 703.80-11.16L703.80-11.16Q703.80-14.24 701.76-16.14Q699.72-18.04 696.52-18.04L696.52-18.04Q693.28-18.04 691.24-16.14Q689.20-14.24 689.20-11.16L689.20-11.16Q689.20-9.16 690.14-7.58Q691.08-6 692.74-5.12Q694.40-4.24 696.52-4.24L696.52-4.24Z M718.88 0L718.88-21.20L722.72-21.20L722.72 0L718.88 0ZM720.80-25.28Q719.68-25.28 718.94-26Q718.20-26.72 718.20-27.76L718.20-27.76Q718.20-28.80 718.94-29.54Q719.68-30.28 720.80-30.28L720.80-30.28Q721.92-30.28 722.66-29.58Q723.40-28.88 723.40-27.84L723.40-27.84Q723.40-26.76 722.66-26.02Q721.92-25.28 720.80-25.28L720.80-25.28Z M744.76-4L745.96-1.24Q745.12-0.52 743.88-0.14Q742.64 0.24 741.32 0.24L741.32 0.24Q738.12 0.24 736.36-1.48Q734.60-3.20 734.60-6.40L734.60-6.40L734.60-18.04L731.00-18.04L731.00-21.20L734.60-21.20L734.60-25.84L738.44-25.84L738.44-21.20L744.52-21.20L744.52-18.04L738.44-18.04L738.44-6.56Q738.44-4.84 739.30-3.92Q740.16-3 741.76-3L741.76-3Q743.52-3 744.76-4L744.76-4Z M765.92-21.40Q769.96-21.40 772.34-19.06Q774.72-16.72 774.72-12.20L774.72-12.20L774.72 0L770.88 0L770.88-11.76Q770.88-14.84 769.40-16.40Q767.92-17.96 765.16-17.96L765.16-17.96Q762.04-17.96 760.24-16.14Q758.44-14.32 758.44-10.92L758.44-10.92L758.44 0L754.60 0L754.60-29.68L758.44-29.68L758.44-18.20Q759.64-19.72 761.58-20.56Q763.52-21.40 765.92-21.40L765.92-21.40Z M801.76-21.20L805.60-21.20L805.60 0L801.96 0L801.96-3.20Q800.80-1.56 798.90-0.66Q797.00 0.24 794.76 0.24L794.76 0.24Q790.52 0.24 788.08-2.10Q785.64-4.44 785.64-9L785.64-9L785.64-21.20L789.48-21.20L789.48-9.44Q789.48-6.36 790.96-4.78Q792.44-3.20 795.20-3.20L795.20-3.20Q798.24-3.20 800.00-5.04Q801.76-6.88 801.76-10.24L801.76-10.24L801.76-21.20Z M828.16-21.40Q831.24-21.40 833.68-20.04Q836.12-18.68 837.50-16.24Q838.88-13.80 838.88-10.60L838.88-10.60Q838.88-7.40 837.50-4.94Q836.12-2.48 833.68-1.12Q831.24 0.24 828.16 0.24L828.16 0.24Q825.80 0.24 823.84-0.68Q821.88-1.60 820.60-3.36L820.60-3.36L820.60 0L816.92 0L816.92-29.68L820.76-29.68L820.76-18Q822.04-19.68 823.96-20.54Q825.88-21.40 828.16-21.40L828.16-21.40ZM827.84-3.12Q829.88-3.12 831.50-4.06Q833.12-5 834.06-6.70Q835.00-8.40 835.00-10.60L835.00-10.60Q835.00-12.80 834.06-14.50Q833.12-16.20 831.50-17.12Q829.88-18.04 827.84-18.04L827.84-18.04Q825.84-18.04 824.20-17.12Q822.56-16.20 821.64-14.50Q820.72-12.80 820.72-10.60L820.72-10.60Q820.72-8.40 821.64-6.70Q822.56-5 824.20-4.06Q825.84-3.12 827.84-3.12L827.84-3.12Z M874.20-21.40Q877.28-21.40 879.72-20.04Q882.16-18.68 883.54-16.24Q884.92-13.80 884.92-10.60L884.92-10.60Q884.92-7.40 883.54-4.94Q882.16-2.48 879.72-1.12Q877.28 0.24 874.20 0.24L874.20 0.24Q871.92 0.24 870.02-0.64Q868.12-1.52 866.80-3.20L866.80-3.20L866.80 7.76L862.96 7.76L862.96-21.20L866.64-21.20L866.64-17.84Q867.92-19.60 869.88-20.50Q871.84-21.40 874.20-21.40L874.20-21.40ZM873.88-3.12Q875.92-3.12 877.54-4.06Q879.16-5 880.10-6.70Q881.04-8.40 881.04-10.60L881.04-10.60Q881.04-12.80 880.10-14.50Q879.16-16.20 877.54-17.12Q875.92-18.04 873.88-18.04L873.88-18.04Q871.88-18.04 870.26-17.10Q868.64-16.16 867.70-14.48Q866.76-12.80 866.76-10.60L866.76-10.60Q866.76-8.40 867.68-6.70Q868.60-5 870.24-4.06Q871.88-3.12 873.88-3.12L873.88-3.12Z M897.92-17.64Q898.92-19.48 900.88-20.44Q902.84-21.40 905.64-21.40L905.64-21.40L905.64-17.68Q905.32-17.72 904.76-17.72L904.76-17.72Q901.64-17.72 899.86-15.86Q898.08-14 898.08-10.56L898.08-10.56L898.08 0L894.24 0L894.24-21.20L897.92-21.20L897.92-17.64Z M923.24 0.24Q920.08 0.24 917.56-1.16Q915.04-2.56 913.62-5.02Q912.20-7.48 912.20-10.60L912.20-10.60Q912.20-13.72 913.62-16.18Q915.04-18.64 917.56-20.02Q920.08-21.40 923.24-21.40L923.24-21.40Q926.40-21.40 928.90-20.02Q931.40-18.64 932.82-16.18Q934.24-13.72 934.24-10.60L934.24-10.60Q934.24-7.48 932.82-5.02Q931.40-2.56 928.90-1.16Q926.40 0.24 923.24 0.24L923.24 0.24ZM923.24-3.12Q925.28-3.12 926.90-4.06Q928.52-5 929.44-6.70Q930.36-8.40 930.36-10.60L930.36-10.60Q930.36-12.80 929.44-14.50Q928.52-16.20 926.90-17.12Q925.28-18.04 923.24-18.04L923.24-18.04Q921.20-18.04 919.58-17.12Q917.96-16.20 917.02-14.50Q916.08-12.80 916.08-10.60L916.08-10.60Q916.08-8.40 917.02-6.70Q917.96-5 919.58-4.06Q921.20-3.12 923.24-3.12L923.24-3.12Z M940.84 8Q939.44 8 938.24 7.68Q937.04 7.36 936.24 6.72L936.24 6.72L937.48 3.76Q938.68 4.76 940.60 4.76L940.60 4.76Q942.12 4.76 942.94 3.82Q943.76 2.88 943.76 1.04L943.76 1.04L943.76-21.20L947.60-21.20L947.60 0.96Q947.60 4.24 945.84 6.12Q944.08 8 940.84 8L940.84 8ZM945.68-25.28Q944.56-25.28 943.82-26Q943.08-26.72 943.08-27.76L943.08-27.76Q943.08-28.80 943.82-29.54Q944.56-30.28 945.68-30.28L945.68-30.28Q946.80-30.28 947.54-29.58Q948.28-28.88 948.28-27.84L948.28-27.84Q948.28-26.76 947.54-26.02Q946.80-25.28 945.68-25.28L945.68-25.28Z M978.08-10.48Q978.08-10.04 978.00-9.32L978.00-9.32L960.80-9.32Q961.16-6.52 963.26-4.82Q965.36-3.12 968.48-3.12L968.48-3.12Q972.28-3.12 974.60-5.68L974.60-5.68L976.72-3.20Q975.28-1.52 973.14-0.64Q971.00 0.24 968.36 0.24L968.36 0.24Q965.00 0.24 962.40-1.14Q959.80-2.52 958.38-5Q956.96-7.48 956.96-10.60L956.96-10.60Q956.96-13.68 958.34-16.16Q959.72-18.64 962.14-20.02Q964.56-21.40 967.60-21.40L967.60-21.40Q970.64-21.40 973.02-20.02Q975.40-18.64 976.74-16.16Q978.08-13.68 978.08-10.48L978.08-10.48ZM967.60-18.16Q964.84-18.16 962.98-16.48Q961.12-14.80 960.80-12.08L960.80-12.08L974.40-12.08Q974.08-14.76 972.22-16.46Q970.36-18.16 967.60-18.16L967.60-18.16Z M996.64 0.24Q993.40 0.24 990.86-1.16Q988.32-2.56 986.88-5.02Q985.44-7.48 985.44-10.60L985.44-10.60Q985.44-13.72 986.88-16.18Q988.32-18.64 990.86-20.02Q993.40-21.40 996.64-21.40L996.64-21.40Q999.52-21.40 1001.78-20.24Q1004.04-19.08 1005.28-16.88L1005.28-16.88L1002.36-15Q1001.36-16.52 999.88-17.28Q998.40-18.04 996.60-18.04L996.60-18.04Q994.52-18.04 992.86-17.12Q991.20-16.20 990.26-14.50Q989.32-12.80 989.32-10.60L989.32-10.60Q989.32-8.36 990.26-6.66Q991.20-4.96 992.86-4.04Q994.52-3.12 996.60-3.12L996.60-3.12Q998.40-3.12 999.88-3.88Q1001.36-4.64 1002.36-6.16L1002.36-6.16L1005.28-4.32Q1004.04-2.12 1001.78-0.94Q999.52 0.24 996.64 0.24L996.64 0.24Z M1025.24-4L1026.44-1.24Q1025.60-0.52 1024.36-0.14Q1023.12 0.24 1021.80 0.24L1021.80 0.24Q1018.60 0.24 1016.84-1.48Q1015.08-3.20 1015.08-6.40L1015.08-6.40L1015.08-18.04L1011.48-18.04L1011.48-21.20L1015.08-21.20L1015.08-25.84L1018.92-25.84L1018.92-21.20L1025.00-21.20L1025.00-18.04L1018.92-18.04L1018.92-6.56Q1018.92-4.84 1019.78-3.92Q1020.64-3 1022.24-3L1022.24-3Q1024.00-3 1025.24-4L1025.24-4Z M1041.16 0.24Q1038.56 0.24 1036.16-0.46Q1033.76-1.16 1032.40-2.24L1032.40-2.24L1034.00-5.28Q1035.40-4.28 1037.40-3.68Q1039.40-3.08 1041.44-3.08L1041.44-3.08Q1046.48-3.08 1046.48-5.96L1046.48-5.96Q1046.48-6.92 1045.80-7.48Q1045.12-8.04 1044.10-8.30Q1043.08-8.56 1041.20-8.88L1041.20-8.88Q1038.64-9.28 1037.02-9.80Q1035.40-10.32 1034.24-11.56Q1033.08-12.80 1033.08-15.04L1033.08-15.04Q1033.08-17.92 1035.48-19.66Q1037.88-21.40 1041.92-21.40L1041.92-21.40Q1044.04-21.40 1046.16-20.88Q1048.28-20.36 1049.64-19.48L1049.64-19.48L1048.00-16.44Q1045.40-18.12 1041.88-18.12L1041.88-18.12Q1039.44-18.12 1038.16-17.32Q1036.88-16.52 1036.88-15.20L1036.88-15.20Q1036.88-14.16 1037.60-13.56Q1038.32-12.96 1039.38-12.68Q1040.44-12.40 1042.36-12.04L1042.36-12.04Q1044.92-11.60 1046.50-11.10Q1048.08-10.60 1049.20-9.40Q1050.32-8.20 1050.32-6.04L1050.32-6.04Q1050.32-3.16 1047.86-1.46Q1045.40 0.24 1041.16 0.24L1041.16 0.24Z"/></g>
</svg>
</g><g opacity="1" transform="rotate(0 82.4629 168.9588)">
<svg width="279.2351" height="120" x="82.4629" y="168.9588" version="1.1" preserveAspectRatio="none" viewBox="-0.7227 -28.4961 115.5664 49.668">
  <g transform="matrix(1 0 0 1 0 0)" class="companyName"><path id="id-D6z1nYkh9" d="M2.79-8.03L2.79-8.03Q2.71-7.50 2.60-7.04Q2.48-6.58 2.37-6.24Q2.27-5.90 2.19-5.68Q2.11-5.47 2.09-5.45L2.09-5.45Q1.89-5 1.41-5L1.41-5Q1.13-5 0.90-5.21Q0.66-5.41 0.66-5.72L0.66-5.72Q0.66-5.84 0.70-5.90Q0.74-5.96 0.82-6.13Q0.90-6.31 1.02-6.72Q1.13-7.13 1.31-7.99L1.31-7.99Q0.98-7.99 0.63-8.01Q0.27-8.03-0.03-8.14Q-0.33-8.26-0.53-8.52Q-0.72-8.77-0.72-9.22L-0.72-9.22Q-0.72-9.55-0.54-10.12Q-0.35-10.68-0.04-11.23Q0.27-11.78 0.66-12.18Q1.05-12.58 1.45-12.58L1.45-12.58Q1.89-12.58 2.18-12.25Q2.46-11.91 2.62-11.44Q2.77-10.96 2.84-10.43Q2.91-9.90 2.91-9.51L2.91-9.51Q3.24-9.51 3.56-9.52Q3.89-9.53 4.18-9.53L4.18-9.53Q5.29-9.53 5.88-9.04Q6.46-8.55 6.46-7.44L6.46-7.44Q6.46-6.99 6.41-6.50Q6.35-6.02 6.27-5.50Q6.19-4.98 6.13-4.47Q6.07-3.96 6.07-3.48L6.07-3.48Q6.07-2.77 6.27-2.31Q6.46-1.86 6.76-1.58Q7.05-1.31 7.38-1.20Q7.71-1.09 7.99-1.09L7.99-1.09Q8.83-1.09 9.57-1.64Q10.31-2.19 10.94-2.96Q11.56-3.73 12.06-4.59Q12.56-5.45 12.89-6.09L12.89-6.09Q12.99-6.27 13.16-6.37Q13.34-6.46 13.54-6.46L13.54-6.46Q13.89-6.46 14.08-6.24Q14.28-6.02 14.28-5.74L14.28-5.74Q14.28-5.55 14.20-5.39L14.20-5.39Q13.75-4.59 13.15-3.58Q12.56-2.58 11.80-1.70Q11.04-0.82 10.09-0.21Q9.14 0.39 8.01 0.39L8.01 0.39Q7.30 0.39 6.68 0.13Q6.05-0.14 5.60-0.63Q5.14-1.13 4.86-1.87Q4.59-2.60 4.59-3.52L4.59-3.52Q4.59-4.49 4.79-5.46Q4.98-6.43 4.98-7.30L4.98-7.30Q4.98-7.68 4.81-7.86Q4.65-8.05 4.08-8.05L4.08-8.05Q3.81-8.05 3.49-8.05Q3.16-8.05 2.79-8.03ZM0.63-9.47L1.48-9.47Q1.48-9.61 1.47-9.83Q1.46-10.06 1.44-10.27Q1.41-10.49 1.36-10.64Q1.31-10.80 1.25-10.80L1.25-10.80Q1.19-10.80 1.10-10.65Q1.02-10.51 0.92-10.30Q0.82-10.10 0.74-9.86Q0.66-9.63 0.63-9.47L0.63-9.47Z M27.97-5.45L27.97-5.45Q27.89-5.29 27.65-4.79Q27.40-4.30 27.02-3.65Q26.64-3.01 26.13-2.30Q25.63-1.60 25-1.02Q24.38-0.43 23.65-0.05Q22.93 0.33 22.13 0.33L22.13 0.33Q21.00 0.33 20.22-0.39Q19.45-1.11 19.10-2.21L19.10-2.21Q18.44-1.09 17.52-0.44Q16.60 0.21 15.68 0.21L15.68 0.21Q14.96 0.21 14.38-0.05Q13.79-0.31 13.38-0.79Q12.97-1.27 12.74-1.91Q12.52-2.56 12.52-3.32L12.52-3.32Q12.52-4.84 13.04-6.01Q13.55-7.17 14.36-7.95Q15.16-8.73 16.12-9.12Q17.09-9.51 17.99-9.51L17.99-9.51Q18.59-9.51 19.10-9.35Q19.61-9.18 19.97-8.98Q20.33-8.79 20.53-8.62Q20.72-8.46 20.74-8.44L20.74-8.44Q20.96-8.18 20.96-7.91L20.96-7.91Q20.96-7.62 20.74-7.39Q20.53-7.17 20.23-7.17L20.23-7.17Q19.92-7.17 19.71-7.38L19.71-7.38Q19.67-7.42 19.53-7.53Q19.39-7.64 19.16-7.75Q18.93-7.87 18.60-7.96Q18.28-8.05 17.87-8.05L17.87-8.05Q17.27-8.05 16.58-7.77Q15.90-7.50 15.33-6.92Q14.77-6.35 14.38-5.48Q14.00-4.61 14.00-3.42L14.00-3.42Q14.00-3.05 14.08-2.67Q14.16-2.29 14.36-1.97Q14.55-1.66 14.88-1.46Q15.21-1.27 15.70-1.27L15.70-1.27Q16.05-1.27 16.51-1.50Q16.97-1.74 17.39-2.23Q17.81-2.71 18.15-3.46Q18.50-4.20 18.63-5.21L18.63-5.21Q18.67-5.49 18.89-5.67Q19.10-5.86 19.39-5.86L19.39-5.86Q19.67-5.86 19.87-5.64Q20.08-5.43 20.10-5.16L20.10-5.16Q20.12-4.79 20.18-4.11Q20.23-3.44 20.44-2.77Q20.64-2.11 21.05-1.62Q21.46-1.13 22.19-1.13L22.19-1.13Q22.66-1.13 23.12-1.39Q23.57-1.64 24.01-2.06Q24.45-2.48 24.85-3.02Q25.25-3.55 25.59-4.10Q25.92-4.65 26.17-5.16Q26.43-5.66 26.60-6.04L26.60-6.04Q26.70-6.25 26.88-6.37Q27.07-6.48 27.29-6.48L27.29-6.48Q27.62-6.48 27.82-6.24Q28.03-6.00 28.03-5.72L28.03-5.72Q28.03-5.59 27.97-5.45Z M33.89 0.27L33.89 0.27Q34.57-0.41 35.27-1.12Q35.98-1.84 36.64-2.62Q37.30-3.40 37.88-4.25Q38.46-5.10 38.91-6.05L38.91-6.05Q39.00-6.27 39.18-6.38Q39.36-6.48 39.57-6.48L39.57-6.48Q39.90-6.48 40.11-6.25Q40.31-6.02 40.31-5.72L40.31-5.72Q40.31-5.57 40.25-5.43L40.25-5.43Q39.65-4.16 38.87-3.11Q38.09-2.05 37.23-1.10Q36.37-0.16 35.49 0.73Q34.61 1.62 33.81 2.52L33.81 2.52Q33.73 3.87 33.81 5.22Q33.89 6.58 33.89 8.11L33.89 8.11Q33.89 9.36 33.81 10.61Q33.73 11.86 33.55 13.00Q33.38 14.14 33.08 15.14Q32.77 16.13 32.30 16.87Q31.84 17.60 31.21 18.02Q30.59 18.44 29.75 18.44L29.75 18.44Q28.36 18.44 27.62 17.48Q26.88 16.52 26.88 14.80L26.88 14.80Q26.88 13.87 27.08 12.79Q27.29 11.72 27.66 10.58Q28.03 9.43 28.54 8.26Q29.06 7.09 29.67 5.98Q30.27 4.86 30.96 3.86Q31.64 2.85 32.34 2.03L32.34 2.03Q32.38 1.09 32.43 0.09Q32.48-0.92 32.54-1.78L32.54-1.78Q32.03-0.88 31.28-0.33Q30.53 0.21 29.63 0.21L29.63 0.21Q28.14 0.21 27.30-0.78Q26.46-1.78 26.46-3.52L26.46-3.52Q26.46-4.79 26.71-5.83Q26.95-6.88 27.24-7.63Q27.52-8.38 27.75-8.78Q27.99-9.18 27.99-9.16L27.99-9.16Q28.20-9.49 28.59-9.49L28.59-9.49Q28.93-9.49 29.13-9.27Q29.34-9.04 29.34-8.75L29.34-8.75Q29.34-8.54 29.22-8.36L29.22-8.36Q29.24-8.38 29.03-8.04Q28.83-7.70 28.58-7.05Q28.34-6.41 28.13-5.51Q27.93-4.61 27.93-3.54L27.93-3.54Q27.93-2.46 28.32-1.86Q28.71-1.25 29.59-1.25L29.59-1.25Q30.70-1.25 31.60-2.90Q32.50-4.55 33.13-7.70L33.13-7.70Q33.16-7.95 33.36-8.12Q33.55-8.28 33.83-8.28L33.83-8.28Q34.14-8.28 34.36-8.07Q34.57-7.85 34.57-7.54L34.57-7.54Q34.57-7.48 34.49-6.85Q34.41-6.21 34.31-5.16Q34.20-4.10 34.08-2.71Q33.96-1.31 33.89 0.27ZM32.32 4.41L32.32 4.41Q31.45 5.68 30.71 7.09Q29.98 8.50 29.45 9.88Q28.93 11.27 28.63 12.54Q28.34 13.81 28.34 14.80L28.34 14.80Q28.34 15.82 28.67 16.40Q29.00 16.97 29.73 16.97L29.73 16.97Q30.37 16.97 30.87 16.34Q31.37 15.70 31.71 14.53Q32.05 13.36 32.23 11.69Q32.40 10.02 32.40 7.95L32.40 7.95Q32.40 7.11 32.37 6.25Q32.34 5.39 32.32 4.41Z M51.05-6.84L51.05-6.84Q51.05-6.52 50.87-6.30Q50.68-6.07 50.35-6.05L50.35-6.05L43.63-5.70Q43.34-5.68 43.10-5.87Q42.85-6.05 42.85-6.39L42.85-6.39Q42.85-6.70 43.04-6.92Q43.22-7.15 43.55-7.17L43.55-7.17L50.27-7.52Q50.59-7.54 50.81-7.34Q51.04-7.15 51.05-6.84Z M70.02-5.41L70.02-5.41Q69.96-5.29 69.77-4.93Q69.57-4.57 69.26-4.09Q68.95-3.61 68.52-3.08Q68.09-2.54 67.58-2.09Q67.07-1.64 66.48-1.35Q65.90-1.05 65.27-1.05L65.27-1.05Q64.26-1.05 63.55-1.42Q62.85-1.78 62.40-2.23L62.40-2.23Q62.09-1.54 61.64-0.98Q61.19-0.41 60.64 0.01Q60.10 0.43 59.48 0.66Q58.87 0.90 58.22 0.90L58.22 0.90Q57.03 0.90 56.19 0.20Q55.35-0.51 54.79-1.69Q54.24-2.87 53.93-4.43Q53.61-6.00 53.45-7.71Q53.28-9.43 53.24-11.19Q53.20-12.95 53.20-14.53L53.20-14.53Q53.20-17.56 53.38-19.78Q53.55-21.99 53.86-23.54Q54.16-25.10 54.56-26.06Q54.96-27.03 55.41-27.57Q55.86-28.11 56.33-28.30Q56.80-28.50 57.25-28.50L57.25-28.50Q57.97-28.50 58.53-28.07Q59.08-27.64 59.46-26.87Q59.84-26.09 60.04-25Q60.23-23.91 60.23-22.60L60.23-22.60Q60.23-20.51 59.79-18.28Q59.34-16.05 58.62-13.84Q57.91-11.62 57.03-9.48Q56.15-7.34 55.29-5.43L55.29-5.43Q55.41-4.47 55.64-3.60Q55.88-2.73 56.25-2.06Q56.62-1.39 57.13-0.99Q57.64-0.59 58.30-0.59L58.30-0.59Q58.96-0.59 59.55-0.97Q60.14-1.35 60.57-1.96Q61.00-2.58 61.24-3.36Q61.48-4.14 61.48-4.96L61.48-4.96Q61.48-5.51 61.38-6.06Q61.27-6.62 61.04-7.06Q60.82-7.50 60.49-7.77Q60.16-8.05 59.69-8.05L59.69-8.05Q59.34-8.05 59.14-7.90Q58.95-7.75 58.85-7.57Q58.75-7.38 58.73-7.21Q58.71-7.03 58.71-6.97L58.71-6.97Q58.71-6.70 58.83-6.43Q58.95-6.15 59.28-5.94L59.28-5.94Q59.61-5.70 59.61-5.29L59.61-5.29Q59.61-4.96 59.38-4.77Q59.16-4.57 58.89-4.57L58.89-4.57Q58.50-4.57 58.19-4.80Q57.89-5.04 57.68-5.40Q57.46-5.76 57.34-6.17Q57.23-6.58 57.23-6.93L57.23-6.93Q57.23-7.50 57.42-7.98Q57.62-8.46 57.96-8.80Q58.30-9.14 58.74-9.33Q59.18-9.51 59.67-9.51L59.67-9.51Q60.51-9.51 61.12-9.12Q61.74-8.73 62.15-8.09Q62.56-7.44 62.75-6.62Q62.95-5.80 62.95-4.96L62.95-4.96Q62.95-4.47 62.89-4.00L62.89-4.00Q62.97-3.85 63.14-3.59Q63.32-3.34 63.61-3.11Q63.91-2.87 64.32-2.70Q64.73-2.52 65.27-2.52L65.27-2.52Q65.74-2.52 66.24-2.88Q66.74-3.24 67.20-3.78Q67.66-4.32 68.05-4.93Q68.44-5.55 68.69-6.07L68.69-6.07Q68.79-6.27 68.96-6.38Q69.14-6.48 69.36-6.48L69.36-6.48Q69.69-6.48 69.89-6.25Q70.10-6.02 70.10-5.72L70.10-5.72Q70.10-5.61 70.02-5.41ZM54.92-7.93L54.92-7.93Q55.59-9.57 56.27-11.38Q56.95-13.18 57.50-15.06Q58.05-16.93 58.40-18.85Q58.75-20.76 58.75-22.62L58.75-22.62Q58.75-23.32 58.68-24.09Q58.61-24.86 58.44-25.51Q58.26-26.15 57.96-26.58Q57.66-27.01 57.19-27.01L57.19-27.01Q57.03-27.01 56.79-26.81Q56.54-26.60 56.27-26.08Q56.00-25.57 55.72-24.65Q55.45-23.73 55.22-22.31Q55-20.90 54.85-18.91Q54.71-16.91 54.71-14.22L54.71-14.22Q54.71-13.32 54.73-12.39Q54.75-11.46 54.78-10.63Q54.80-9.79 54.84-9.08Q54.88-8.38 54.92-7.93Z M79.80-5.41L79.80-5.41Q79.59-4.96 79.27-4.35Q78.95-3.73 78.54-3.07Q78.13-2.40 77.62-1.75Q77.11-1.09 76.51-0.58Q75.92-0.06 75.24 0.26Q74.57 0.59 73.81 0.59L73.81 0.59Q72.64 0.59 71.80-0.14Q70.96-0.86 70.37-2.03Q69.79-3.20 69.42-4.70Q69.06-6.19 68.87-7.74Q68.67-9.30 68.60-10.76Q68.54-12.23 68.54-13.36L68.54-13.36Q68.54-15 68.64-16.76Q68.75-18.52 68.98-20.20Q69.22-21.88 69.58-23.38Q69.94-24.88 70.44-26.02Q70.94-27.15 71.58-27.81Q72.23-28.48 73.05-28.48L73.05-28.48Q73.69-28.48 74.21-28.17Q74.73-27.87 75.08-27.19Q75.43-26.50 75.63-25.41Q75.82-24.32 75.82-22.73L75.82-22.73Q75.82-20.78 75.41-18.70Q75-16.62 74.30-14.51Q73.59-12.40 72.64-10.30Q71.68-8.20 70.59-6.21L70.59-6.21Q71.07-3.73 71.89-2.31Q72.71-0.90 73.87-0.90L73.87-0.90Q74.65-0.90 75.37-1.51Q76.09-2.13 76.70-2.97Q77.30-3.81 77.76-4.68Q78.22-5.55 78.48-6.07L78.48-6.07Q78.57-6.27 78.75-6.38Q78.93-6.48 79.14-6.48L79.14-6.48Q79.47-6.48 79.68-6.25Q79.88-6.02 79.88-5.72L79.88-5.72Q79.88-5.61 79.80-5.41ZM70.02-13.26L70.02-13.26Q70.02-12.01 70.08-10.86Q70.14-9.71 70.23-8.65L70.23-8.65Q71.05-10.23 71.80-12.02Q72.54-13.81 73.11-15.63Q73.67-17.46 74.01-19.27Q74.36-21.07 74.36-22.71L74.36-22.71Q74.36-25.02 73.98-26.02Q73.61-27.01 72.99-27.01L72.99-27.01Q72.58-27.01 72.20-26.45Q71.82-25.88 71.48-24.90Q71.15-23.93 70.88-22.60Q70.61-21.27 70.42-19.75Q70.23-18.22 70.13-16.56Q70.02-14.90 70.02-13.26Z M87.48-2.15L87.48-2.15Q86.99-2.15 86.62-2.23L86.62-2.23Q86.33-1.64 85.92-1.14Q85.51-0.64 84.97-0.27Q84.43 0.10 83.77 0.31Q83.11 0.53 82.32 0.53L82.32 0.53Q81.41 0.53 80.64 0.21Q79.88-0.12 79.32-0.69Q78.75-1.27 78.44-2.08Q78.13-2.89 78.13-3.87L78.13-3.87Q78.13-5.12 78.57-6.04Q79.02-6.97 79.61-7.59Q80.20-8.20 80.78-8.51Q81.37-8.81 81.66-8.81L81.66-8.81Q81.99-8.81 82.16-8.63Q82.32-8.46 82.32-8.16L82.32-8.16Q82.32-7.83 82.12-7.67Q81.91-7.50 81.60-7.34L81.60-7.34Q81.29-7.19 80.94-6.90Q80.59-6.62 80.28-6.19Q79.98-5.76 79.79-5.18Q79.59-4.59 79.59-3.87L79.59-3.87Q79.59-3.22 79.79-2.67Q79.98-2.11 80.35-1.71Q80.72-1.31 81.23-1.08Q81.74-0.86 82.36-0.86L82.36-0.86Q83.48-0.86 84.21-1.38Q84.94-1.89 85.33-2.70L85.33-2.70Q84.18-3.30 83.44-4.41Q82.70-5.53 82.70-6.91L82.70-6.91Q82.70-8.03 83.23-8.73Q83.77-9.43 84.65-9.43L84.65-9.43Q85.18-9.43 85.64-9.18Q86.11-8.93 86.47-8.38Q86.84-7.83 87.05-6.97Q87.27-6.11 87.27-4.92L87.27-4.92Q87.27-4.30 87.11-3.61L87.11-3.61Q87.23-3.59 87.34-3.59Q87.46-3.59 87.60-3.59L87.60-3.59Q88.26-3.59 88.79-3.75Q89.32-3.91 89.75-4.22Q90.18-4.53 90.52-5.02Q90.86-5.51 91.17-6.15L91.17-6.15Q91.23-6.27 91.43-6.38Q91.62-6.48 91.82-6.48L91.82-6.48Q92.07-6.48 92.29-6.28Q92.52-6.07 92.52-5.74L92.52-5.74Q92.52-5.59 92.44-5.40Q92.36-5.21 92.29-5.06L92.29-5.06Q91.95-4.47 91.51-3.94Q91.07-3.40 90.48-3.00Q89.88-2.60 89.14-2.36Q88.40-2.13 87.48-2.15ZM84.14-7.07L84.14-7.07Q84.14-6.70 84.24-6.29Q84.34-5.88 84.54-5.48Q84.75-5.08 85.05-4.72Q85.35-4.36 85.76-4.10L85.76-4.10Q85.82-4.51 85.82-4.90L85.82-4.90Q85.82-5.43 85.74-5.98Q85.66-6.52 85.52-6.98Q85.37-7.44 85.16-7.72Q84.94-8.01 84.65-8.01L84.65-8.01Q84.53-8.01 84.34-7.83Q84.14-7.66 84.14-7.07Z M98.18 1.91L98.18 1.91Q101.86-2.87 103.28-6.04L103.28-6.04Q103.38-6.25 103.54-6.36Q103.71-6.46 103.93-6.46L103.93-6.46Q104.26-6.46 104.47-6.24Q104.69-6.02 104.69-5.72L104.69-5.72Q104.69-5.59 104.63-5.45L104.63-5.45Q103.77-3.50 102.19-1.09Q100.61 1.31 98.18 4.34L98.18 4.34Q98.18 5.57 98.20 6.80Q98.22 8.03 98.22 9.49L98.22 9.49Q98.22 10.96 98.15 12.39Q98.09 13.83 97.91 15.13Q97.73 16.43 97.43 17.53Q97.13 18.63 96.65 19.44Q96.17 20.25 95.50 20.71Q94.82 21.17 93.91 21.17L93.91 21.17Q92.60 21.17 91.89 20.18Q91.19 19.18 91.19 17.34L91.19 17.34Q91.19 16.37 91.38 15.22Q91.56 14.08 91.91 12.87Q92.27 11.66 92.76 10.42Q93.26 9.18 93.87 8.01Q94.47 6.84 95.19 5.76Q95.90 4.69 96.70 3.81L96.70 3.81Q96.72 2.44 96.73 1.09Q96.74-0.25 96.78-1.39L96.78-1.39Q96.19-0.64 95.38-0.21Q94.57 0.21 93.77 0.21L93.77 0.21Q93.09 0.21 92.53-0.05Q91.97-0.31 91.58-0.79Q91.19-1.27 90.98-1.91Q90.76-2.56 90.76-3.32L90.76-3.32Q90.76-4.84 91.28-6.01Q91.80-7.17 92.60-7.95Q93.40-8.73 94.37-9.12Q95.33-9.51 96.23-9.51L96.23-9.51Q96.84-9.51 97.34-9.36Q97.85-9.20 98.21-9.00Q98.57-8.81 98.77-8.63Q98.96-8.46 98.98-8.44L98.98-8.44Q99.20-8.20 99.20-7.91L99.20-7.91Q99.20-7.62 98.98-7.39Q98.77-7.17 98.48-7.17L98.48-7.17Q98.20-7.17 97.95-7.38L97.95-7.38Q97.87-7.44 97.74-7.55Q97.62-7.66 97.41-7.77Q97.21-7.89 96.92-7.97Q96.64-8.05 96.25-8.05L96.25-8.05Q95.66-8.05 94.96-7.78Q94.26-7.52 93.65-6.95Q93.05-6.39 92.64-5.50Q92.23-4.61 92.23-3.36L92.23-3.36Q92.23-2.42 92.64-1.85Q93.05-1.27 93.91-1.27L93.91-1.27Q94.32-1.27 94.78-1.50Q95.23-1.74 95.66-2.23Q96.09-2.71 96.42-3.46Q96.74-4.20 96.88-5.21L96.88-5.21Q96.91-5.49 97.13-5.67Q97.34-5.86 97.64-5.86L97.64-5.86Q97.97-5.86 98.15-5.63Q98.34-5.39 98.34-5.10L98.34-5.10Q98.34-5.08 98.32-4.50Q98.30-3.93 98.28-2.97Q98.26-2.01 98.23-0.75Q98.20 0.51 98.18 1.91ZM96.70 6.19L96.70 6.19Q95.78 7.46 95.04 8.96Q94.30 10.45 93.77 11.97Q93.24 13.50 92.96 14.93Q92.68 16.37 92.68 17.50L92.68 17.50Q92.68 18.22 92.80 18.65Q92.93 19.08 93.12 19.32Q93.30 19.55 93.53 19.63Q93.75 19.71 93.95 19.71L93.95 19.71Q94.55 19.71 95 19.22Q95.45 18.73 95.76 17.92Q96.07 17.11 96.27 16.05Q96.46 15 96.56 13.88Q96.66 12.75 96.70 11.64Q96.74 10.53 96.74 9.59L96.74 9.59Q96.74 8.75 96.74 7.91Q96.74 7.07 96.70 6.19Z M105.45-7.23L105.45-7.23Q105.33-6.91 105.17-6.52Q105-6.13 104.79-5.70L104.79-5.70Q104.61-5.37 104.42-5.19Q104.24-5 103.95-5L103.95-5Q103.61-5 103.42-5.21Q103.22-5.41 103.22-5.68L103.22-5.68Q103.22-5.78 103.24-5.85Q103.26-5.92 103.34-6.07L103.34-6.07Q103.85-7.05 104.09-7.78Q104.34-8.52 104.49-9.32L104.49-9.32Q104.36-9.77 104.30-10.08Q104.24-10.39 104.24-10.72L104.24-10.72Q104.24-11.37 104.51-11.77Q104.79-12.17 105.27-12.17L105.27-12.17Q105.72-12.17 105.99-11.78Q106.25-11.39 106.25-10.82L106.25-10.82Q106.25-10.51 106.19-10.20Q106.13-9.88 106.04-9.41L106.04-9.41Q106.48-8.30 106.93-7.44Q107.38-6.58 107.73-5.87Q108.09-5.16 108.31-4.53Q108.54-3.91 108.54-3.28L108.54-3.28Q108.54-2.46 108.20-1.72Q107.87-0.98 107.11-0.47L107.11-0.47Q107.21-0.45 107.30-0.45Q107.40-0.45 107.50-0.45L107.50-0.45Q108.61-0.45 109.55-0.96Q110.49-1.46 111.24-2.28Q111.99-3.09 112.58-4.07Q113.16-5.06 113.59-6.04L113.59-6.04Q113.79-6.48 114.14-6.48L114.14-6.48Q114.47-6.48 114.66-6.25Q114.84-6.02 114.84-5.74L114.84-5.74Q114.84-5.59 114.79-5.45L114.79-5.45Q114.57-4.92 114.23-4.25Q113.89-3.57 113.41-2.86Q112.93-2.15 112.30-1.46Q111.68-0.78 110.91-0.24Q110.14 0.29 109.22 0.62Q108.30 0.94 107.21 0.94L107.21 0.94Q105.90 0.94 104.78 0.48Q103.65 0.02 102.95-1.04L102.95-1.04Q102.83-1.21 102.83-1.41L102.83-1.41Q102.83-1.70 103.06-1.92Q103.28-2.15 103.57-2.15L103.57-2.15Q103.89-2.15 104.10-1.93L104.10-1.93Q104.12-1.89 104.24-1.81Q104.36-1.72 104.52-1.61Q104.69-1.50 104.91-1.43Q105.14-1.35 105.37-1.35L105.37-1.35Q105.84-1.35 106.16-1.54Q106.48-1.74 106.68-2.02Q106.88-2.30 106.96-2.63Q107.05-2.95 107.05-3.18L107.05-3.18Q107.05-3.67 106.89-4.16Q106.74-4.65 106.49-5.14Q106.25-5.63 105.97-6.14Q105.68-6.66 105.45-7.23Z"/></g>
</svg>
</g></svg></svg>