<svg version="1.1" preserveAspectRatio="none" xmlns="http://www.w3.org/2000/svg" width="500" height="500" viewBox="0 0 500 500"><rect width="100%" height="100%" fill="#232128" fill-opacity="1"/><svg viewBox="4.0892 253.1266 657.3906 134" width="333" height="67.87745367822419" x="83.5px" y="216.0613px" xmlns="http://www.w3.org/2000/svg" xmlns:xlink="http://www.w3.org/1999/xlink" preserveAspectRatio="none"><defs></defs><style>.companyName {fill:#A5AEAD;fill-opacity:1;}.icon1 {fill:#A4747F;fill-opacity:1;}.icon2 {fill:#8CA6A2;fill-opacity:1;}.icon3 {fill:#5E718C;fill-opacity:1;}.icon3-str {stroke:#5E718C;stroke-opacity:1;}.text {fill:#A5AEAD;fill-opacity:1;}</style><g opacity="1" transform="rotate(0 88.4519 253.1266)">
<svg width="69.3593" height="80" x="88.4519" y="253.1266" version="1.1" preserveAspectRatio="none" viewBox="9.49724292755127 3.282512664794922 81.0055160522461 93.43284606933594">
  <g transform="matrix(1 0 0 1 0 0)" class="icon1"><title>21</title><g data-name="Group"><path data-name="Compound Path" d="M90.5,55.3a26.3,26.3,0,0,0-2.9-12.2c0-.4,0-.7,0-1.1A21.8,21.8,0,0,0,84,29.8c0-.3,0-.7,0-1.1a16.3,16.3,0,0,0-3.5-10.3A11.5,11.5,0,0,0,72.7,14a15.6,15.6,0,0,0-3-6.2A11,11,0,0,0,52,7.7,15,15,0,0,0,50,11a15,15,0,0,0-2-3.3,11,11,0,0,0-17.6,0,15.6,15.6,0,0,0-3,6.2,11.5,11.5,0,0,0-7.8,4.4A16.3,16.3,0,0,0,16,28.7c0,.4,0,.7,0,1.1A21.8,21.8,0,0,0,12.4,42c0,.4,0,.7,0,1.1A26.3,26.3,0,0,0,9.5,55.3a25.3,25.3,0,0,0,5.4,16L16,72.5q0,.2,0,.5a16.3,16.3,0,0,0,3.5,10.3,11.4,11.4,0,0,0,8.3,4.4,15.2,15.2,0,0,0,2.5,4.4A11.3,11.3,0,0,0,40,96.7c4.3-.4,8-3.5,10-7.9,2,4.4,5.7,7.6,10,7.9h.8a11.4,11.4,0,0,0,8.8-4.5,15.2,15.2,0,0,0,2.5-4.4,11.4,11.4,0,0,0,8.3-4.4A16.3,16.3,0,0,0,84,73q0-.3,0-.5l1.1-1.2A25.3,25.3,0,0,0,90.5,55.3ZM39,15.3a3,3,0,1,1-3,3A3,3,0,0,1,39,15.3Zm6.3,75.4V61.9a1.5,1.5,0,0,0-1.5-1.5h-15a6,6,0,1,0,0,3H42.3V84.3H34.4V77.8a6,6,0,1,0-3-.1v8a1.5,1.5,0,0,0,1.5,1.5h9.4V93a7.4,7.4,0,0,1-2.5.7,8.3,8.3,0,0,1-7.1-3.3,12.5,12.5,0,0,1-2.3-4.5,1.5,1.5,0,0,0-1.4-1.1h-.6a8.4,8.4,0,0,1-6.5-3.3A13.3,13.3,0,0,1,19,73q0-.5,0-.9h0a1.6,1.6,0,0,0-.3-1v-.2l-1.3-1.4a22.3,22.3,0,0,1-4.7-14.1,23.2,23.2,0,0,1,2.7-11.1h0a1.6,1.6,0,0,0,.2-.8h0c0-.4,0-.9,0-1.3a18.6,18.6,0,0,1,3.4-10.9h0a1.6,1.6,0,0,0,.3-.9V30a12.6,12.6,0,0,1-.1-1.3,13.3,13.3,0,0,1,2.8-8.5,8.4,8.4,0,0,1,6.5-3.3h.2A1.5,1.5,0,0,0,30,15.7a12.9,12.9,0,0,1,2.6-6A8.7,8.7,0,0,1,38,6.4v6a6,6,0,1,0,3,.3V6.5a8.9,8.9,0,0,1,4.7,3.1,12.9,12.9,0,0,1,2.6,6,14.6,14.6,0,0,1,.2,2.4V42.6H46V29.2a1.5,1.5,0,0,0-1.5-1.5h-9a6,6,0,1,0,.1,3H43V42.6H40.5a6,6,0,1,0-.1,3h8v6.7H23.4V46.8a6,6,0,1,0-3-.1v7a1.5,1.5,0,0,0,1.5,1.5H48.5V81.5A14,14,0,0,1,45.3,90.7ZM26,62a3,3,0,1,1-3-3A3,3,0,0,1,26,62Zm7,13a3,3,0,1,1,3-3A3,3,0,0,1,33,75Zm-.3-45.7a3,3,0,1,1-3-3A3,3,0,0,1,32.7,29.3Zm5,14.7a3,3,0,1,1-3-3A3,3,0,0,1,37.7,44ZM22,44a3,3,0,1,1,3-3A3,3,0,0,1,22,44ZM82.8,69.4l-1.3,1.4V71a1.6,1.6,0,0,0-.3,1h0q0,.5,0,.9a13.3,13.3,0,0,1-2.8,8.5,8.4,8.4,0,0,1-6.5,3.3h-.5a1.5,1.5,0,0,0-1.6,1.1,12.5,12.5,0,0,1-2.3,4.5,8.3,8.3,0,0,1-7.1,3.3c-4.9-.4-8.7-5.7-8.7-12.2V18.1a14.7,14.7,0,0,1,.2-2.4,12.9,12.9,0,0,1,2.6-6,8,8,0,0,1,13,0,12.9,12.9,0,0,1,2.6,6,1.5,1.5,0,0,0,1.5,1.3h.2a8.4,8.4,0,0,1,6.5,3.3A13.3,13.3,0,0,1,81,28.7a12.6,12.6,0,0,1-.1,1.3v.2a1.6,1.6,0,0,0,.3.9h0A18.6,18.6,0,0,1,84.6,42c0,.4,0,.9,0,1.3h0a1.6,1.6,0,0,0,.2.8h0a23.2,23.2,0,0,1,2.7,11.1A22.3,22.3,0,0,1,82.8,69.4Z"></path><path data-name="Path" d="M55.3,43.4h.5a8.2,8.2,0,0,0,5.5-9.7,7.8,7.8,0,0,0-4.8-14.8,1.5,1.5,0,0,0,.9,2.9,4.8,4.8,0,0,1,2.9,9.1l-1.1.2A1.5,1.5,0,0,0,58,33.1l.3.8a5.2,5.2,0,0,1-3.4,6.5,1.5,1.5,0,0,0,.5,2.9Z"></path><path data-name="Path" d="M71.3,64.7a1.5,1.5,0,0,0-1.1,1.8A7.5,7.5,0,0,1,65,75.8a7.4,7.4,0,0,1-3.1.2,1.5,1.5,0,0,0-1.3.4,7.8,7.8,0,0,1-3.6,2.2,1.5,1.5,0,0,0,.4,2.9h.4A10.9,10.9,0,0,0,62.2,79,10.5,10.5,0,0,0,73.1,65.7,1.5,1.5,0,0,0,71.3,64.7Z"></path><path data-name="Path" d="M75.7,53.1a10.5,10.5,0,0,0-16.4-5.2,1.5,1.5,0,1,0,1.8,2.4A7.5,7.5,0,0,1,73,54.5a1.5,1.5,0,0,0,.9,1,7.8,7.8,0,0,1,3.4,2.5,1.5,1.5,0,0,0,2.4-1.8A10.9,10.9,0,0,0,75.7,53.1Z"></path><path data-name="Path" d="M77.7,38a7.9,7.9,0,0,0-6.4-7.9,1.5,1.5,0,0,0-.6,2.9,4.9,4.9,0,0,1,3.9,5.6,1.5,1.5,0,0,0,.9,1.6,3.4,3.4,0,0,1,2.1,3.8,1.5,1.5,0,0,0,1.2,1.8h.3a1.5,1.5,0,0,0,1.5-1.2A6.4,6.4,0,0,0,77.7,38Z"></path><path data-name="Path" d="M64.8,59.7a20.7,20.7,0,0,0,4.5-3.3,1.5,1.5,0,0,0-2.1-2.2,17.3,17.3,0,0,1-4.4,3.1,1.5,1.5,0,0,0-.8,1.1c-.4,2.5-4,4.3-8,4a1.5,1.5,0,0,0-.2,3H55C59.8,65.4,63.7,63.1,64.8,59.7Z"></path></g></g>
</svg>
</g><g opacity="1" transform="rotate(0 4.0892 363.1266)">
<svg width="657.3906" height="24" x="4.0892" y="363.1266" version="1.1" preserveAspectRatio="none" viewBox="0.08 -29.88 1036.48 37.84">
  <g transform="matrix(1 0 0 1 0 0)" class="text"><path id="id-6izo4zJp44" d="M25.48 0L22.12-7.48L6.52-7.48L3.16 0L0.08 0L12.88-28L15.80-28L28.60 0L25.48 0ZM7.60-9.88L21.04-9.88L14.32-24.92L7.60-9.88Z M61.20-3.32L62.20-1.28Q61.40-0.56 60.22-0.18Q59.04 0.20 57.76 0.20L57.76 0.20Q54.80 0.20 53.20-1.40Q51.60-3 51.60-5.92L51.60-5.92L51.60-18.64L47.84-18.64L47.84-21.04L51.60-21.04L51.60-25.64L54.44-25.64L54.44-21.04L60.84-21.04L60.84-18.64L54.44-18.64L54.44-6.08Q54.44-4.20 55.38-3.22Q56.32-2.24 58.08-2.24L58.08-2.24Q58.96-2.24 59.78-2.52Q60.60-2.80 61.20-3.32L61.20-3.32Z M88.96-10.52L88.92-9.64L71.32-9.64Q71.56-6.36 73.84-4.34Q76.12-2.32 79.60-2.32L79.60-2.32Q81.56-2.32 83.20-3.02Q84.84-3.72 86.04-5.08L86.04-5.08L87.64-3.24Q86.24-1.56 84.14-0.68Q82.04 0.20 79.52 0.20L79.52 0.20Q76.28 0.20 73.78-1.18Q71.28-2.56 69.88-5Q68.48-7.44 68.48-10.52L68.48-10.52Q68.48-13.60 69.82-16.04Q71.16-18.48 73.50-19.84Q75.84-21.20 78.76-21.20L78.76-21.20Q81.68-21.20 84-19.84Q86.32-18.48 87.64-16.06Q88.96-13.64 88.96-10.52L88.96-10.52ZM78.76-18.76Q75.72-18.76 73.66-16.82Q71.60-14.88 71.32-11.76L71.32-11.76L86.24-11.76Q85.96-14.88 83.90-16.82Q81.84-18.76 78.76-18.76L78.76-18.76Z M107.48 0.20Q104.36 0.20 101.90-1.16Q99.44-2.52 98.04-4.98Q96.64-7.44 96.64-10.52L96.64-10.52Q96.64-13.60 98.04-16.04Q99.44-18.48 101.90-19.84Q104.36-21.20 107.48-21.20L107.48-21.20Q110.20-21.20 112.34-20.14Q114.48-19.08 115.72-17.04L115.72-17.04L113.60-15.60Q112.56-17.16 110.96-17.94Q109.36-18.72 107.48-18.72L107.48-18.72Q105.20-18.72 103.38-17.70Q101.56-16.68 100.54-14.80Q99.52-12.92 99.52-10.52L99.52-10.52Q99.52-8.08 100.54-6.22Q101.56-4.36 103.38-3.34Q105.20-2.32 107.48-2.32L107.48-2.32Q109.36-2.32 110.96-3.08Q112.56-3.84 113.60-5.40L113.60-5.40L115.72-3.96Q114.48-1.92 112.32-0.86Q110.16 0.20 107.48 0.20L107.48 0.20Z M135.68-21.20Q139.64-21.20 141.98-18.90Q144.32-16.60 144.32-12.20L144.32-12.20L144.32 0L141.48 0L141.48-11.92Q141.48-15.20 139.84-16.92Q138.20-18.64 135.16-18.64L135.16-18.64Q131.76-18.64 129.78-16.62Q127.80-14.60 127.80-11.04L127.80-11.04L127.80 0L124.96 0L124.96-29.68L127.80-29.68L127.80-17.36Q128.96-19.20 131-20.20Q133.04-21.20 135.68-21.20L135.68-21.20Z M166.76-21.20Q170.72-21.20 173.06-18.90Q175.40-16.60 175.40-12.20L175.40-12.20L175.40 0L172.56 0L172.56-11.92Q172.56-15.20 170.92-16.92Q169.28-18.64 166.24-18.64L166.24-18.64Q162.84-18.64 160.86-16.62Q158.88-14.60 158.88-11.04L158.88-11.04L158.88 0L156.04 0L156.04-21.04L158.76-21.04L158.76-17.16Q159.92-19.08 161.98-20.14Q164.04-21.20 166.76-21.20L166.76-21.20Z M187.12 0L187.12-21.04L189.96-21.04L189.96 0L187.12 0ZM188.56-25.64Q187.68-25.64 187.08-26.24Q186.48-26.84 186.48-27.68L186.48-27.68Q186.48-28.48 187.08-29.08Q187.68-29.68 188.56-29.68L188.56-29.68Q189.44-29.68 190.04-29.10Q190.64-28.52 190.64-27.72L190.64-27.72Q190.64-26.84 190.04-26.24Q189.44-25.64 188.56-25.64L188.56-25.64Z M210.60 0.20Q207.48 0.20 205.02-1.16Q202.56-2.52 201.16-4.98Q199.76-7.44 199.76-10.52L199.76-10.52Q199.76-13.60 201.16-16.04Q202.56-18.48 205.02-19.84Q207.48-21.20 210.60-21.20L210.60-21.20Q213.32-21.20 215.46-20.14Q217.60-19.08 218.84-17.04L218.84-17.04L216.72-15.60Q215.68-17.16 214.08-17.94Q212.48-18.72 210.60-18.72L210.60-18.72Q208.32-18.72 206.50-17.70Q204.68-16.68 203.66-14.80Q202.64-12.92 202.64-10.52L202.64-10.52Q202.64-8.08 203.66-6.22Q204.68-4.36 206.50-3.34Q208.32-2.32 210.60-2.32L210.60-2.32Q212.48-2.32 214.08-3.08Q215.68-3.84 216.72-5.40L216.72-5.40L218.84-3.96Q217.60-1.92 215.44-0.86Q213.28 0.20 210.60 0.20L210.60 0.20Z M235.76-21.20Q239.88-21.20 242.08-19.14Q244.28-17.08 244.28-13.04L244.28-13.04L244.28 0L241.56 0L241.56-3.28Q240.60-1.64 238.74-0.72Q236.88 0.20 234.32 0.20L234.32 0.20Q230.80 0.20 228.72-1.48Q226.64-3.16 226.64-5.92L226.64-5.92Q226.64-8.60 228.58-10.24Q230.52-11.88 234.76-11.88L234.76-11.88L241.44-11.88L241.44-13.16Q241.44-15.88 239.92-17.30Q238.40-18.72 235.48-18.72L235.48-18.72Q233.48-18.72 231.64-18.06Q229.80-17.40 228.48-16.24L228.48-16.24L227.20-18.36Q228.80-19.72 231.04-20.46Q233.28-21.20 235.76-21.20L235.76-21.20ZM234.76-2.04Q237.16-2.04 238.88-3.14Q240.60-4.24 241.44-6.32L241.44-6.32L241.44-9.76L234.84-9.76Q229.44-9.76 229.44-6L229.44-6Q229.44-4.16 230.84-3.10Q232.24-2.04 234.76-2.04L234.76-2.04Z M256 0L256-29.68L258.84-29.68L258.84 0L256 0Z M296.08-21.20Q299.04-21.20 301.44-19.86Q303.84-18.52 305.20-16.08Q306.56-13.64 306.56-10.52L306.56-10.52Q306.56-7.40 305.20-4.96Q303.84-2.52 301.44-1.16Q299.04 0.20 296.08 0.20L296.08 0.20Q293.44 0.20 291.34-0.92Q289.24-2.04 287.96-4.16L287.96-4.16L287.96 0L285.24 0L285.24-29.68L288.08-29.68L288.08-17.04Q289.40-19.08 291.46-20.14Q293.52-21.20 296.08-21.20L296.08-21.20ZM295.88-2.32Q298.08-2.32 299.88-3.34Q301.68-4.36 302.70-6.24Q303.72-8.12 303.72-10.52L303.72-10.52Q303.72-12.92 302.70-14.80Q301.68-16.68 299.88-17.70Q298.08-18.72 295.88-18.72L295.88-18.72Q293.64-18.72 291.86-17.70Q290.08-16.68 289.06-14.80Q288.04-12.92 288.04-10.52L288.04-10.52Q288.04-8.12 289.06-6.24Q290.08-4.36 291.86-3.34Q293.64-2.32 295.88-2.32L295.88-2.32Z M316.36 0L316.36-29.68L319.20-29.68L319.20 0L316.36 0Z M339.72 0.20Q336.68 0.20 334.24-1.18Q331.80-2.56 330.40-5Q329-7.44 329-10.52L329-10.52Q329-13.60 330.40-16.04Q331.80-18.48 334.24-19.84Q336.68-21.20 339.72-21.20L339.72-21.20Q342.76-21.20 345.20-19.84Q347.64-18.48 349.02-16.04Q350.40-13.60 350.40-10.52L350.40-10.52Q350.40-7.44 349.02-5Q347.64-2.56 345.20-1.18Q342.76 0.20 339.72 0.20L339.72 0.20ZM339.72-2.32Q341.96-2.32 343.74-3.34Q345.52-4.36 346.52-6.24Q347.52-8.12 347.52-10.52L347.52-10.52Q347.52-12.92 346.52-14.80Q345.52-16.68 343.74-17.70Q341.96-18.72 339.72-18.72L339.72-18.72Q337.48-18.72 335.70-17.70Q333.92-16.68 332.90-14.80Q331.88-12.92 331.88-10.52L331.88-10.52Q331.88-8.12 332.90-6.24Q333.92-4.36 335.70-3.34Q337.48-2.32 339.72-2.32L339.72-2.32Z M376.96-21.04L379.68-21.04L379.68-2.56Q379.68 2.80 377.06 5.38Q374.44 7.96 369.16 7.96L369.16 7.96Q366.24 7.96 363.62 7.10Q361 6.24 359.36 4.72L359.36 4.72L360.80 2.56Q362.32 3.92 364.50 4.68Q366.68 5.44 369.08 5.44L369.08 5.44Q373.08 5.44 374.96 3.58Q376.84 1.72 376.84-2.20L376.84-2.20L376.84-4.88Q375.52-2.88 373.38-1.84Q371.24-0.80 368.64-0.80L368.64-0.80Q365.68-0.80 363.26-2.10Q360.84-3.40 359.46-5.74Q358.08-8.08 358.08-11.04L358.08-11.04Q358.08-14 359.46-16.32Q360.84-18.64 363.24-19.92Q365.64-21.20 368.64-21.20L368.64-21.20Q371.32-21.20 373.48-20.12Q375.64-19.04 376.96-17L376.96-17L376.96-21.04ZM368.92-3.32Q371.20-3.32 373.04-4.30Q374.88-5.28 375.90-7.04Q376.92-8.80 376.92-11.04L376.92-11.04Q376.92-13.28 375.90-15.02Q374.88-16.76 373.06-17.74Q371.24-18.72 368.92-18.72L368.92-18.72Q366.64-18.72 364.82-17.76Q363-16.80 361.98-15.04Q360.96-13.28 360.96-11.04L360.96-11.04Q360.96-8.80 361.98-7.04Q363-5.28 364.82-4.30Q366.64-3.32 368.92-3.32L368.92-3.32Z M390.08-9.60L390.08-12.08L400.56-12.08L400.56-9.60L390.08-9.60Z M416.56 0.20Q414.00 0.20 411.66-0.54Q409.32-1.28 408.00-2.40L408.00-2.40L409.28-4.64Q410.60-3.60 412.60-2.94Q414.60-2.28 416.76-2.28L416.76-2.28Q419.64-2.28 421.02-3.18Q422.40-4.08 422.40-5.72L422.40-5.72Q422.40-6.88 421.64-7.54Q420.88-8.20 419.72-8.54Q418.56-8.88 416.64-9.20L416.64-9.20Q414.08-9.68 412.52-10.18Q410.96-10.68 409.86-11.88Q408.76-13.08 408.76-15.20L408.76-15.20Q408.76-17.84 410.96-19.52Q413.16-21.20 417.08-21.20L417.08-21.20Q419.12-21.20 421.16-20.66Q423.20-20.12 424.52-19.24L424.52-19.24L423.28-16.96Q420.68-18.76 417.08-18.76L417.08-18.76Q414.36-18.76 412.98-17.80Q411.60-16.84 411.60-15.28L411.60-15.28Q411.60-14.08 412.38-13.36Q413.16-12.64 414.32-12.30Q415.48-11.96 417.52-11.60L417.52-11.60Q420.04-11.12 421.56-10.64Q423.08-10.16 424.16-9Q425.24-7.84 425.24-5.80L425.24-5.80Q425.24-3.04 422.94-1.42Q420.64 0.20 416.56 0.20L416.56 0.20Z M434.48 0L434.48-21.04L437.32-21.04L437.32 0L434.48 0ZM435.92-25.64Q435.04-25.64 434.44-26.24Q433.84-26.84 433.84-27.68L433.84-27.68Q433.84-28.48 434.44-29.08Q435.04-29.68 435.92-29.68L435.92-29.68Q436.80-29.68 437.40-29.10Q438.00-28.52 438.00-27.72L438.00-27.72Q438.00-26.84 437.40-26.24Q436.80-25.64 435.92-25.64L435.92-25.64Z M459.32-3.32L460.32-1.28Q459.52-0.56 458.34-0.18Q457.16 0.20 455.88 0.20L455.88 0.20Q452.92 0.20 451.32-1.40Q449.72-3 449.72-5.92L449.72-5.92L449.72-18.64L445.96-18.64L445.96-21.04L449.72-21.04L449.72-25.64L452.56-25.64L452.56-21.04L458.96-21.04L458.96-18.64L452.56-18.64L452.56-6.08Q452.56-4.20 453.50-3.22Q454.44-2.24 456.20-2.24L456.20-2.24Q457.08-2.24 457.90-2.52Q458.72-2.80 459.32-3.32L459.32-3.32Z M487.08-10.52L487.04-9.64L469.44-9.64Q469.68-6.36 471.96-4.34Q474.24-2.32 477.72-2.32L477.72-2.32Q479.68-2.32 481.32-3.02Q482.96-3.72 484.16-5.08L484.16-5.08L485.76-3.24Q484.36-1.56 482.26-0.68Q480.16 0.20 477.64 0.20L477.64 0.20Q474.40 0.20 471.90-1.18Q469.40-2.56 468.00-5Q466.60-7.44 466.60-10.52L466.60-10.52Q466.60-13.60 467.94-16.04Q469.28-18.48 471.62-19.84Q473.96-21.20 476.88-21.20L476.88-21.20Q479.80-21.20 482.12-19.84Q484.44-18.48 485.76-16.06Q487.08-13.64 487.08-10.52L487.08-10.52ZM476.88-18.76Q473.84-18.76 471.78-16.82Q469.72-14.88 469.44-11.76L469.44-11.76L484.36-11.76Q484.08-14.88 482.02-16.82Q479.96-18.76 476.88-18.76L476.88-18.76Z M518.32-27.48Q516.48-27.48 515.54-26.48Q514.60-25.48 514.60-23.52L514.60-23.52L514.60-21.04L521.08-21.04L521.08-18.64L514.68-18.64L514.68 0L511.84 0L511.84-18.64L508.08-18.64L508.08-21.04L511.84-21.04L511.84-23.64Q511.84-26.52 513.50-28.20Q515.16-29.88 518.20-29.88L518.20-29.88Q519.40-29.88 520.52-29.54Q521.64-29.20 522.40-28.56L522.40-28.56L521.44-26.44Q520.20-27.48 518.32-27.48L518.32-27.48Z M537.16 0.20Q534.12 0.20 531.68-1.18Q529.24-2.56 527.84-5Q526.44-7.44 526.44-10.52L526.44-10.52Q526.44-13.60 527.84-16.04Q529.24-18.48 531.68-19.84Q534.12-21.20 537.16-21.20L537.16-21.20Q540.20-21.20 542.64-19.84Q545.08-18.48 546.46-16.04Q547.84-13.60 547.84-10.52L547.84-10.52Q547.84-7.44 546.46-5Q545.08-2.56 542.64-1.18Q540.20 0.20 537.16 0.20L537.16 0.20ZM537.16-2.32Q539.40-2.32 541.18-3.34Q542.96-4.36 543.96-6.24Q544.96-8.12 544.96-10.52L544.96-10.52Q544.96-12.92 543.96-14.80Q542.96-16.68 541.18-17.70Q539.40-18.72 537.16-18.72L537.16-18.72Q534.92-18.72 533.14-17.70Q531.36-16.68 530.34-14.80Q529.32-12.92 529.32-10.52L529.32-10.52Q529.32-8.12 530.34-6.24Q531.36-4.36 533.14-3.34Q534.92-2.32 537.16-2.32L537.16-2.32Z M560.36-16.92Q561.36-19.04 563.34-20.12Q565.32-21.20 568.24-21.20L568.24-21.20L568.24-18.44L567.56-18.48Q564.24-18.48 562.36-16.44Q560.48-14.40 560.48-10.72L560.48-10.72L560.48 0L557.64 0L557.64-21.04L560.36-21.04L560.36-16.92Z M618.40-21.20Q622.36-21.20 624.62-18.92Q626.88-16.64 626.88-12.20L626.88-12.20L626.88 0L624.04 0L624.04-11.92Q624.04-15.20 622.46-16.92Q620.88-18.64 618-18.64L618-18.64Q614.72-18.64 612.84-16.62Q610.96-14.60 610.96-11.04L610.96-11.04L610.96 0L608.12 0L608.12-11.92Q608.12-15.20 606.54-16.92Q604.96-18.64 602.04-18.64L602.04-18.64Q598.80-18.64 596.90-16.62Q595-14.60 595-11.04L595-11.04L595 0L592.16 0L592.16-21.04L594.88-21.04L594.88-17.20Q596-19.12 598-20.16Q600-21.20 602.60-21.20L602.60-21.20Q605.24-21.20 607.18-20.08Q609.12-18.96 610.08-16.76L610.08-16.76Q611.24-18.84 613.42-20.02Q615.60-21.20 618.40-21.20L618.40-21.20Z M653.08-21.04L655.88-21.04L645.36 2.52Q644.08 5.48 642.40 6.72Q640.72 7.96 638.36 7.96L638.36 7.96Q636.84 7.96 635.52 7.48Q634.20 7 633.24 6.04L633.24 6.04L634.56 3.92Q636.16 5.52 638.40 5.52L638.40 5.52Q639.84 5.52 640.86 4.72Q641.88 3.92 642.76 2L642.76 2L643.68-0.04L634.28-21.04L637.24-21.04L645.16-3.16L653.08-21.04Z M695.12-21.04L697.84-21.04L697.84-2.56Q697.84 2.80 695.22 5.38Q692.60 7.96 687.32 7.96L687.32 7.96Q684.40 7.96 681.78 7.10Q679.16 6.24 677.52 4.72L677.52 4.72L678.96 2.56Q680.48 3.92 682.66 4.68Q684.84 5.44 687.24 5.44L687.24 5.44Q691.24 5.44 693.12 3.58Q695.00 1.72 695.00-2.20L695.00-2.20L695.00-4.88Q693.68-2.88 691.54-1.84Q689.40-0.80 686.80-0.80L686.80-0.80Q683.84-0.80 681.42-2.10Q679.00-3.40 677.62-5.74Q676.24-8.08 676.24-11.04L676.24-11.04Q676.24-14 677.62-16.32Q679.00-18.64 681.40-19.92Q683.80-21.20 686.80-21.20L686.80-21.20Q689.48-21.20 691.64-20.12Q693.80-19.04 695.12-17L695.12-17L695.12-21.04ZM687.08-3.32Q689.36-3.32 691.20-4.30Q693.04-5.28 694.06-7.04Q695.08-8.80 695.08-11.04L695.08-11.04Q695.08-13.28 694.06-15.02Q693.04-16.76 691.22-17.74Q689.40-18.72 687.08-18.72L687.08-18.72Q684.80-18.72 682.98-17.76Q681.16-16.80 680.14-15.04Q679.12-13.28 679.12-11.04L679.12-11.04Q679.12-8.80 680.14-7.04Q681.16-5.28 682.98-4.30Q684.80-3.32 687.08-3.32L687.08-3.32Z M709.80 0L709.80-21.04L712.64-21.04L712.64 0L709.80 0ZM711.24-25.64Q710.36-25.64 709.76-26.24Q709.16-26.84 709.16-27.68L709.16-27.68Q709.16-28.48 709.76-29.08Q710.36-29.68 711.24-29.68L711.24-29.68Q712.12-29.68 712.72-29.10Q713.32-28.52 713.32-27.72L713.32-27.72Q713.32-26.84 712.72-26.24Q712.12-25.64 711.24-25.64L711.24-25.64Z M734.64-3.32L735.64-1.28Q734.84-0.56 733.66-0.18Q732.48 0.20 731.20 0.20L731.20 0.20Q728.24 0.20 726.64-1.40Q725.04-3 725.04-5.92L725.04-5.92L725.04-18.64L721.28-18.64L721.28-21.04L725.04-21.04L725.04-25.64L727.88-25.64L727.88-21.04L734.28-21.04L734.28-18.64L727.88-18.64L727.88-6.08Q727.88-4.20 728.82-3.22Q729.76-2.24 731.52-2.24L731.52-2.24Q732.40-2.24 733.22-2.52Q734.04-2.80 734.64-3.32L734.64-3.32Z M755.52-21.20Q759.48-21.20 761.82-18.90Q764.16-16.60 764.16-12.20L764.16-12.20L764.16 0L761.32 0L761.32-11.92Q761.32-15.20 759.68-16.92Q758.04-18.64 755.00-18.64L755.00-18.64Q751.60-18.64 749.62-16.62Q747.64-14.60 747.64-11.04L747.64-11.04L747.64 0L744.80 0L744.80-29.68L747.64-29.68L747.64-17.36Q748.80-19.20 750.84-20.20Q752.88-21.20 755.52-21.20L755.52-21.20Z M792.00-21.04L794.84-21.04L794.84 0L792.12 0L792.12-3.84Q791.00-1.92 789.04-0.86Q787.08 0.20 784.56 0.20L784.56 0.20Q780.44 0.20 778.06-2.10Q775.68-4.40 775.68-8.84L775.68-8.84L775.68-21.04L778.52-21.04L778.52-9.12Q778.52-5.80 780.16-4.08Q781.80-2.36 784.84-2.36L784.84-2.36Q788.16-2.36 790.08-4.38Q792.00-6.40 792.00-10L792.00-10L792.00-21.04Z M817.64-21.20Q820.60-21.20 823.00-19.86Q825.40-18.52 826.76-16.08Q828.12-13.64 828.12-10.52L828.12-10.52Q828.12-7.40 826.76-4.96Q825.40-2.52 823.00-1.16Q820.60 0.20 817.64 0.20L817.64 0.20Q815.00 0.20 812.90-0.92Q810.80-2.04 809.52-4.16L809.52-4.16L809.52 0L806.80 0L806.80-29.68L809.64-29.68L809.64-17.04Q810.96-19.08 813.02-20.14Q815.08-21.20 817.64-21.20L817.64-21.20ZM817.44-2.32Q819.64-2.32 821.44-3.34Q823.24-4.36 824.26-6.24Q825.28-8.12 825.28-10.52L825.28-10.52Q825.28-12.92 824.26-14.80Q823.24-16.68 821.44-17.70Q819.64-18.72 817.44-18.72L817.44-18.72Q815.20-18.72 813.42-17.70Q811.64-16.68 810.62-14.80Q809.60-12.92 809.60-10.52L809.60-10.52Q809.60-8.12 810.62-6.24Q811.64-4.36 813.42-3.34Q815.20-2.32 817.44-2.32L817.44-2.32Z M863.24-21.20Q866.20-21.20 868.60-19.86Q871.00-18.52 872.36-16.08Q873.72-13.64 873.72-10.52L873.72-10.52Q873.72-7.36 872.36-4.92Q871.00-2.48 868.62-1.14Q866.24 0.20 863.24 0.20L863.24 0.20Q860.68 0.20 858.62-0.86Q856.56-1.92 855.24-3.96L855.24-3.96L855.24 7.76L852.40 7.76L852.40-21.04L855.12-21.04L855.12-16.88Q856.40-18.96 858.50-20.08Q860.60-21.20 863.24-21.20L863.24-21.20ZM863.04-2.32Q865.24-2.32 867.04-3.34Q868.84-4.36 869.86-6.24Q870.88-8.12 870.88-10.52L870.88-10.52Q870.88-12.92 869.86-14.78Q868.84-16.64 867.04-17.68Q865.24-18.72 863.04-18.72L863.04-18.72Q860.80-18.72 859.02-17.68Q857.24-16.64 856.22-14.78Q855.20-12.92 855.20-10.52L855.20-10.52Q855.20-8.12 856.22-6.24Q857.24-4.36 859.02-3.34Q860.80-2.32 863.04-2.32L863.04-2.32Z M886.24-16.92Q887.24-19.04 889.22-20.12Q891.20-21.20 894.12-21.20L894.12-21.20L894.12-18.44L893.44-18.48Q890.12-18.48 888.24-16.44Q886.36-14.40 886.36-10.72L886.36-10.72L886.36 0L883.52 0L883.52-21.04L886.24-21.04L886.24-16.92Z M911.64 0.20Q908.60 0.20 906.16-1.18Q903.72-2.56 902.32-5Q900.92-7.44 900.92-10.52L900.92-10.52Q900.92-13.60 902.32-16.04Q903.72-18.48 906.16-19.84Q908.60-21.20 911.64-21.20L911.64-21.20Q914.68-21.20 917.12-19.84Q919.56-18.48 920.94-16.04Q922.32-13.60 922.32-10.52L922.32-10.52Q922.32-7.44 920.94-5Q919.56-2.56 917.12-1.18Q914.68 0.20 911.64 0.20L911.64 0.20ZM911.64-2.32Q913.88-2.32 915.66-3.34Q917.44-4.36 918.44-6.24Q919.44-8.12 919.44-10.52L919.44-10.52Q919.44-12.92 918.44-14.80Q917.44-16.68 915.66-17.70Q913.88-18.72 911.64-18.72L911.64-18.72Q909.40-18.72 907.62-17.70Q905.84-16.68 904.82-14.80Q903.80-12.92 903.80-10.52L903.80-10.52Q903.80-8.12 904.82-6.24Q905.84-4.36 907.62-3.34Q909.40-2.32 911.64-2.32L911.64-2.32Z M929.00 7.96Q927.68 7.96 926.50 7.62Q925.32 7.28 924.56 6.60L924.56 6.60L925.56 4.44Q926.80 5.52 928.84 5.52L928.84 5.52Q930.52 5.52 931.42 4.52Q932.32 3.52 932.32 1.56L932.32 1.56L932.32-21.04L935.16-21.04L935.16 1.56Q935.16 4.52 933.56 6.24Q931.96 7.96 929.00 7.96L929.00 7.96ZM933.76-25.68Q932.88-25.68 932.28-26.28Q931.68-26.88 931.68-27.72L931.68-27.72Q931.68-28.52 932.28-29.12Q932.88-29.72 933.76-29.72L933.76-29.72Q934.64-29.72 935.24-29.14Q935.84-28.56 935.84-27.76L935.84-27.76Q935.84-26.88 935.24-26.28Q934.64-25.68 933.76-25.68L933.76-25.68Z M965.44-10.52L965.40-9.64L947.80-9.64Q948.04-6.36 950.32-4.34Q952.60-2.32 956.08-2.32L956.08-2.32Q958.04-2.32 959.68-3.02Q961.32-3.72 962.52-5.08L962.52-5.08L964.12-3.24Q962.72-1.56 960.62-0.68Q958.52 0.20 956.00 0.20L956.00 0.20Q952.76 0.20 950.26-1.18Q947.76-2.56 946.36-5Q944.96-7.44 944.96-10.52L944.96-10.52Q944.96-13.60 946.30-16.04Q947.64-18.48 949.98-19.84Q952.32-21.20 955.24-21.20L955.24-21.20Q958.16-21.20 960.48-19.84Q962.80-18.48 964.12-16.06Q965.44-13.64 965.44-10.52L965.44-10.52ZM955.24-18.76Q952.20-18.76 950.14-16.82Q948.08-14.88 947.80-11.76L947.80-11.76L962.72-11.76Q962.44-14.88 960.38-16.82Q958.32-18.76 955.24-18.76L955.24-18.76Z M983.96 0.20Q980.84 0.20 978.38-1.16Q975.92-2.52 974.52-4.98Q973.12-7.44 973.12-10.52L973.12-10.52Q973.12-13.60 974.52-16.04Q975.92-18.48 978.38-19.84Q980.84-21.20 983.96-21.20L983.96-21.20Q986.68-21.20 988.82-20.14Q990.96-19.08 992.20-17.04L992.20-17.04L990.08-15.60Q989.04-17.16 987.44-17.94Q985.84-18.72 983.96-18.72L983.96-18.72Q981.68-18.72 979.86-17.70Q978.04-16.68 977.02-14.80Q976.00-12.92 976.00-10.52L976.00-10.52Q976.00-8.08 977.02-6.22Q978.04-4.36 979.86-3.34Q981.68-2.32 983.96-2.32L983.96-2.32Q985.84-2.32 987.44-3.08Q989.04-3.84 990.08-5.40L990.08-5.40L992.20-3.96Q990.96-1.92 988.80-0.86Q986.64 0.20 983.96 0.20L983.96 0.20Z M1012.08-3.32L1013.08-1.28Q1012.28-0.56 1011.10-0.18Q1009.92 0.20 1008.64 0.20L1008.64 0.20Q1005.68 0.20 1004.08-1.40Q1002.48-3 1002.48-5.92L1002.48-5.92L1002.48-18.64L998.72-18.64L998.72-21.04L1002.48-21.04L1002.48-25.64L1005.32-25.64L1005.32-21.04L1011.72-21.04L1011.72-18.64L1005.32-18.64L1005.32-6.08Q1005.32-4.20 1006.26-3.22Q1007.20-2.24 1008.96-2.24L1008.96-2.24Q1009.84-2.24 1010.66-2.52Q1011.48-2.80 1012.08-3.32L1012.08-3.32Z M1027.88 0.20Q1025.32 0.20 1022.98-0.54Q1020.64-1.28 1019.32-2.40L1019.32-2.40L1020.60-4.64Q1021.92-3.60 1023.92-2.94Q1025.92-2.28 1028.08-2.28L1028.08-2.28Q1030.96-2.28 1032.34-3.18Q1033.72-4.08 1033.72-5.72L1033.72-5.72Q1033.72-6.88 1032.96-7.54Q1032.20-8.20 1031.04-8.54Q1029.88-8.88 1027.96-9.20L1027.96-9.20Q1025.40-9.68 1023.84-10.18Q1022.28-10.68 1021.18-11.88Q1020.08-13.08 1020.08-15.20L1020.08-15.20Q1020.08-17.84 1022.28-19.52Q1024.48-21.20 1028.40-21.20L1028.40-21.20Q1030.44-21.20 1032.48-20.66Q1034.52-20.12 1035.84-19.24L1035.84-19.24L1034.60-16.96Q1032.00-18.76 1028.40-18.76L1028.40-18.76Q1025.68-18.76 1024.30-17.80Q1022.92-16.84 1022.92-15.28L1022.92-15.28Q1022.92-14.08 1023.70-13.36Q1024.48-12.64 1025.64-12.30Q1026.80-11.96 1028.84-11.60L1028.84-11.60Q1031.36-11.12 1032.88-10.64Q1034.40-10.16 1035.48-9Q1036.56-7.84 1036.56-5.80L1036.56-5.80Q1036.56-3.04 1034.26-1.42Q1031.96 0.20 1027.88 0.20L1027.88 0.20Z"/></g>
</svg>
</g><g opacity="1" transform="rotate(0 183.8112 253.1266)">
<svg width="393.3059" height="80" x="183.8112" y="253.1266" version="1.1" preserveAspectRatio="none" viewBox="1.7969 -28.9453 187.05079999999998 38.046899999999994">
  <g transform="matrix(1 0 0 1 0 0)" class="companyName"><path id="id-D6z1nYkh9" d="M12.48-24.47L12.48-24.47L11.88-24.47Q10.55-24.47 10.26-24.11Q9.98-23.75 9.98-22.23L9.98-22.23L9.98-15.14Q9.98-14.36 10.31-14.02Q10.64-13.69 11.78-13.69L11.78-13.69L12.54-13.69L12.70-13.71L13.14-13.73Q13.30-13.75 13.44-13.75L13.44-13.75Q14.82-13.75 16.14-15.07Q17.46-16.39 17.46-18.52L17.46-18.52L17.46-19.45Q17.46-21.56 16.13-23.02Q14.80-24.47 12.48-24.47ZM11.56-27.07L11.56-27.07L12.89-27.07Q17.89-27.07 20.70-25.16Q23.52-23.24 23.52-19.77L23.52-19.77Q23.52-17.79 22.70-16.31Q21.88-14.82 21.04-14.06L21.04-14.06Q19.12-12.32 19.12-12.17L19.12-12.17Q19.12-11.45 19.83-10.25Q20.55-9.06 21.46-7.40Q22.38-5.74 22.77-5.21L22.77-5.21Q23.79-3.85 24.98-3.32L24.98-3.32Q27.11-2.40 27.11-1.95L27.11-1.95Q27.11-0.70 26.05-0.39L26.05-0.39Q24.55 0.06 22.54 0.06Q20.53 0.06 19.30-1.20Q18.07-2.46 16.45-5.83Q14.82-9.20 14.36-9.79L14.36-9.79Q13.38-11.05 11.80-11.05L11.80-11.05Q10.94-11.05 10.63-10.21Q10.33-9.36 10.33-5.98L10.33-5.98Q10.33-5.16 11.17-3.40L11.17-3.40L11.89-2.09Q12.42-1.11 12.42-1.00L12.42-1.00Q12.42 0.02 9.24 0.02L9.24 0.02Q3.69 0.02 2.74-0.25Q1.80-0.53 1.80-1.35Q1.80-2.17 2.99-2.89Q4.18-3.61 4.43-4.60Q4.69-5.59 4.69-13.17Q4.69-20.76 4.39-22.07Q4.10-23.38 3.34-24.12L3.34-24.12Q1.97-25.45 1.97-25.82L1.97-25.82Q1.97-26.60 3.60-26.84Q5.23-27.07 11.56-27.07Z M40.35-7.99L40.35-7.99Q40.35-8.87 39.80-8.87L39.80-8.87L39.30-8.87Q38.81-8.77 38.55-8.77L38.55-8.77Q36.78-8.77 35.57-7.73Q34.36-6.70 34.36-5.39L34.36-5.39L34.36-4.94Q34.36-3.95 34.98-3.22Q35.61-2.50 36.50-2.50L36.50-2.50L37.13-2.50Q38.42-2.50 39.34-3.30Q40.25-4.10 40.25-4.86L40.25-4.86Q40.33-5.25 40.33-5.37L40.33-5.37L40.37-5.68L40.37-6.52L40.39-6.84L40.39-7.70Q40.35-7.89 40.35-7.99ZM48.28-1.80L48.28-1.80L48.28-1.50Q48.28-0.84 46.82-0.26Q45.35 0.31 43.34 0.31L43.34 0.31Q42.11 0.31 41.21-0.80L41.21-0.80Q40.72-1.43 40.45-1.43L40.45-1.43Q40.18-1.45 39.51-0.98L39.51-0.98Q37.29 0.55 34.71 0.55L34.71 0.55Q34.69 0.55 34.67 0.57L34.67 0.57Q32.13 0.57 30.61-0.74Q29.08-2.05 29.06-4.41L29.06-4.41Q29.06-9.49 36.88-10.80L36.88-10.80Q38.75-11.09 39.12-11.25L39.12-11.25Q40.25-11.72 40.25-13.34Q40.25-14.96 39.52-15.67Q38.79-16.39 37.81-16.39L37.81-16.39Q36.27-16.39 35.02-14.74Q33.77-13.09 32.11-13.09L32.11-13.09Q31.13-13.09 30.63-13.62Q30.14-14.16 30.14-14.73L30.14-14.73Q30.14-16.45 31.93-17.46L31.93-17.46Q34.92-19.14 38.26-19.14L38.26-19.14L39.28-19.14Q40.96-19.14 42.49-18.43Q44.02-17.71 44.86-16.25Q45.70-14.79 45.70-9.71Q45.70-4.63 46.03-3.86Q46.35-3.09 47.31-2.72Q48.28-2.36 48.28-1.80Z M67.48-18.87L68.09-18.87Q70.74-18.87 70.74-17.48L70.74-17.48Q70.74-16.97 69.85-16.01Q68.96-15.04 68.41-13.88Q67.85-12.71 64.37-4.17Q60.88 4.38 59.92 5.94L59.92 5.94Q58.13 8.83 55.08 8.83L55.08 8.83Q53.93 8.83 52.87 8.23Q51.82 7.64 51.82 6.74Q51.82 5.84 52.49 5.24Q53.16 4.65 54.28 4.65L54.28 4.65Q56.09 4.65 57.25 3.41Q58.40 2.17 58.40 0.78Q58.40-0.61 57.71-2.17L57.71-2.17Q52.93-13.07 52.62-13.69Q52.30-14.32 51.14-15.61Q49.98-16.89 49.98-17.87Q49.98-18.85 55.43-18.85L55.43-18.85Q57.19-18.85 57.86-18.64Q58.54-18.44 58.54-17.48L58.54-17.48Q58.54-17.13 58.27-16.57Q58.01-16.02 58.01-15.48Q58.01-14.94 58.96-11.86Q59.92-8.77 60.63-7.42Q61.33-6.07 61.50-6.07L61.50-6.07Q62.13-6.07 64.08-11.68L64.08-11.68Q64.65-13.30 64.65-15.51L64.65-15.51Q64.65-16.02 64.33-16.58Q64.00-17.15 64.00-17.59Q64.00-18.03 64.45-18.45Q64.90-18.87 67.48-18.87L67.48-18.87Z M73.75-10L73.75-10L73.75-10.80L73.77-10.96Q73.77-12.93 74.90-12.93L74.90-12.93L75.21-12.97L85.41-13.13Q86.39-13.13 86.39-12.29L86.39-12.29L86.39-11.97L86.37-11.82L86.37-11.66Q86.37-9.53 85.35-9.53L85.35-9.53L85.04-9.49L83.63-9.41L82.21-9.41L81.89-9.39L80.12-9.39L79.94-9.38L78.67-9.38L78.52-9.36L77.54-9.36L77.38-9.34L76.74-9.34L76.41-9.32L75.94-9.32L75.16-9.28L74.53-9.28Q73.75-9.28 73.75-10Z M98.77-16.72L98.79-16.56L98.83-15.88Q98.83-15.27 99.69-15.27L99.69-15.27L100.59-15.27L100.74-15.29L101.80-15.33Q101.95-15.35 102.11-15.35L102.11-15.35Q103.61-15.35 104.86-16.47Q106.11-17.60 106.11-19.32L106.11-19.32L106.15-19.63L106.15-20.25Q106.15-22.03 104.89-23.16Q103.63-24.30 101.11-24.30L101.11-24.30L100.35-24.30Q99.06-24.30 98.85-23.67L98.85-23.67Q98.77-23.44 98.77-20.23L98.77-20.23L98.77-16.72ZM98.75-4.77L98.77-4.61L98.81-3.81Q98.81-2.66 100.90-2.66L100.90-2.66L101.07-2.64L101.23-2.62L101.93-2.60L102.81-2.60Q104.75-2.60 106.10-3.83Q107.46-5.06 107.46-7.17L107.46-7.17L107.46-7.91Q107.46-9.88 106.05-11.29Q104.65-12.70 101.76-12.70L101.76-12.70L100.55-12.70Q99.06-12.70 98.92-12.35Q98.77-12.01 98.77-7.89L98.77-7.89L98.75-7.56L98.75-7.07L98.73-6.91L98.73-6.58L98.71-5.92L98.71-5.76L98.73-5.61L98.73-5.27L98.75-5.12Q98.75-4.94 98.75-4.77L98.75-4.77ZM99.84-27.05L99.84-27.05L101.95-27.05Q106.80-27.05 109.26-25.29Q111.72-23.54 111.72-20.57L111.72-20.57Q111.72-18.87 110.94-17.44Q110.16-16.02 109.05-15.28Q107.95-14.55 107.95-14.45Q107.95-14.36 109.46-13.59Q110.98-12.83 111.88-11.78L111.88-11.78Q113.30-10.08 113.30-8.09L113.30-8.09L113.30-7.58Q113.30-1.76 106.33-0.21L106.33-0.21Q104.47 0.20 101.09 0.20L101.09 0.20L100.06 0.20L99.53 0.18Q99.00 0.16 98.50 0.16L98.50 0.16L97.46 0.12Q96.95 0.10 96.43 0.10L96.43 0.10L93.91 0.04Q91.78 0.04 91.39-0.04L91.39-0.04Q90.37-0.23 90.37-1.00L90.37-1.00Q90.37-1.54 91.66-2.62L91.66-2.62Q92.52-3.34 92.80-4.84Q93.09-6.35 93.09-13.76Q93.09-21.17 92.82-22.27Q92.56-23.36 91.47-24.22Q90.39-25.08 90.39-25.75Q90.39-26.43 91.16-26.66Q91.93-26.89 95.29-26.89L95.29-26.89L97.32-26.97Q99.36-27.05 99.84-27.05Z M115.90-27.09L115.90-27.09Q115.90-27.79 116.91-28.11L116.91-28.11Q119.67-28.95 122.19-28.95L122.19-28.95Q123.67-28.95 123.83-27.66L123.83-27.66Q123.87-27.34 123.87-17.19Q123.87-7.03 124.21-5.19Q124.55-3.34 125.14-2.68L125.14-2.68Q126.62-1.00 126.62-0.92L126.62-0.92Q126.62 0.02 121.39 0.02L121.39 0.02L121.00 0.02L120.59 0Q117.46 0 116.85-0.16Q116.23-0.31 116.23-0.89Q116.23-1.46 117.19-2.65Q118.14-3.83 118.40-5.15Q118.65-6.46 118.65-14.90Q118.65-23.34 118.38-24.27Q118.11-25.20 117.00-25.91Q115.90-26.62 115.90-27.09Z M138.79-16.74L138.79-16.74L138.42-16.74Q136.74-16.74 135.67-14.84Q134.61-12.95 134.61-10.31L134.61-10.31L134.61-9.22Q134.61-6.25 135.84-4.20Q137.07-2.15 138.79-2.15L138.79-2.15L139.16-2.15Q140.66-2.15 141.79-3.68Q142.91-5.21 142.91-7.77L142.91-7.77L142.95-8.18L142.97-9.00L142.97-9.22L142.95-9.43L142.95-9.84Q142.91-10.27 142.91-10.47L142.91-10.47Q142.91-13.07 141.68-14.90Q140.45-16.74 138.79-16.74ZM138.81-19.34L138.81-19.34L139.79-19.34Q141.52-19.34 143.36-18.52L143.36-18.52Q146.86-16.95 148.16-13.44L148.16-13.44Q148.83-11.62 148.83-9.73L148.83-9.73L148.83-9.38Q148.83-7.34 148.01-5.39Q147.19-3.44 145.80-2.15L145.80-2.15Q142.91 0.47 139.16 0.47L139.16 0.47Q138.87 0.47 138.57 0.45L138.57 0.45Q136.70 0.45 134.89-0.30Q133.09-1.05 131.93-2.30L131.93-2.30Q129.45-5.04 129.45-9.16L129.45-9.16L129.45-9.49L129.47-9.82Q129.49-11.64 130.16-13.42L130.16-13.42Q131.45-16.82 134.88-18.44L134.88-18.44Q136.82-19.34 138.81-19.34Z M162.95-13.20L162.93-13.34L162.89-14.00Q162.89-15.51 162.08-16.55Q161.27-17.60 160.18-17.60L160.18-17.60L159.94-17.60Q158.95-17.60 158.18-16.46Q157.42-15.31 157.42-13.75L157.42-13.75L157.42-12.75Q157.42-10.88 158.31-9.61Q159.20-8.34 160.25-8.34L160.25-8.34L160.39-8.34Q161.39-8.34 162.14-9.31Q162.89-10.27 162.89-11.54L162.89-11.54L162.91-11.66L162.93-11.80L162.95-12.21L162.95-13.20ZM164.00 0.18L164.00 0.18Q163.07 0.02 162.36 0.02L162.36 0.02L162.21 0L162.07-0.02L161.19-0.08Q161.04-0.10 160.92-0.10L160.92-0.10L160.27-0.16L159.84-0.16L159.71-0.14L159.30-0.12L158.77-0.06Q157.83-0.06 157.07 0.77Q156.31 1.60 156.31 2.75L156.31 2.75L156.31 3.16Q156.31 4.41 157.28 5.09Q158.24 5.76 159.73 5.76L159.73 5.76L160.59 5.76Q163.09 5.76 164.96 4.39L164.96 4.39Q166.13 3.54 166.13 1.97L166.13 1.97L166.11 1.84Q166.11 1.23 165.59 0.70Q165.06 0.18 164.00 0.18ZM170.65-18.49Q171.02-18.11 171.02-17.30Q171.02-16.50 170.23-16.15L170.23-16.15Q168.91-15.57 168.83-15.41L168.83-15.41Q168.59-14.96 168.59-13.96L168.59-13.96L168.61-13.46Q168.67-12.66 168.67-12.29L168.67-12.29Q168.67-11.02 168.03-9.80L168.03-9.80Q166.27-6.45 161.54-5.88L161.54-5.88Q159.45-5.63 159.38-5.61L159.38-5.61Q158.14-5.20 158.14-4.38L158.14-4.38Q158.14-3.65 158.93-3.39Q159.71-3.13 163.25-2.89Q166.80-2.66 168.04-1.99Q169.28-1.33 169.83-0.46Q170.39 0.41 170.39 1.97Q170.39 3.54 169.49 4.82L169.49 4.82Q167.66 7.46 163.71 8.55L163.71 8.55Q161.76 9.10 159.65 9.10L159.65 9.10L159.04 9.10Q155.45 9.10 153.54 7.76Q151.64 6.43 151.64 4.49L151.64 4.49Q151.64 3.20 152.48 2.03L152.48 2.03Q152.64 1.82 153.31 1.07Q153.98 0.33 153.98-0.06L153.98-0.06Q153.98-0.10 153.28-1.08Q152.58-2.07 152.58-3.07Q152.58-4.06 153.63-5.43Q154.69-6.80 154.69-6.97Q154.69-7.15 153.65-8.28L153.65-8.28Q152.64-9.45 152.17-11.13L152.17-11.13Q152.01-11.70 152.01-12.30L152.01-12.30Q152.01-12.36 152.01-12.44L152.01-12.44Q152.01-13.55 152.46-14.69L152.46-14.69Q153.20-16.56 154.86-17.58L154.86-17.58Q157.15-19.00 160.18-19.00L160.18-19.00L160.76-19.00Q160.92-19.00 163.07-18.85L163.07-18.85L164.12-18.73Q165-18.63 165.14-18.63L165.14-18.63L169.38-18.87Q170.29-18.87 170.65-18.49Z M186.88-18.40Q187.75-17.89 187.75-16.25Q187.75-14.61 187.52-14.08Q187.29-13.55 186.60-13.55L186.60-13.55Q185.51-13.55 184.25-15.14Q182.99-16.72 181.07-16.72L181.07-16.72Q179.98-16.72 179.34-16.15Q178.69-15.59 178.69-14.90L178.69-14.90Q178.69-13.73 179.82-12.95L179.82-12.95Q180.37-12.58 183.33-11.34Q186.29-10.10 187.57-8.78Q188.85-7.46 188.85-5.20Q188.85-2.93 186.91-1.25Q184.98 0.43 181.95 0.43L181.95 0.43L180.92 0.43Q177.13 0.43 175.23-0.47L175.23-0.47Q173.91-1.09 173.91-3.44Q173.91-5.78 174.79-5.78L174.79-5.78Q175.90-5.78 177.55-3.96Q179.20-2.15 181.13-2.15L181.13-2.15Q182.30-2.15 183.12-2.65Q183.93-3.14 183.93-4.21Q183.93-5.27 182.79-6.11L182.79-6.11Q182.19-6.56 179.52-7.71Q176.86-8.85 175.72-9.92L175.72-9.92Q174.02-11.52 174.02-13.86Q174.02-16.19 176.02-17.72Q178.01-19.26 180.66-19.26L180.66-19.26L181.19-19.26Q185.37-19.26 186.88-18.40L186.88-18.40Z"/></g>
</svg>
</g></svg></svg>